<svg xmlns:dc="http://purl.org/dc/elements/1.1/" xmlns:cc="http://creativecommons.org/ns#" xmlns:rdf="http://www.w3.org/1999/02/22-rdf-syntax-ns#" xmlns:svg="http://www.w3.org/2000/svg" xmlns="http://www.w3.org/2000/svg" viewBox="0 0 264.6244 80.011" height="302.4038" width="1000.1553">
  <path style="opacity:1;fill:#fff;fill-opacity:1;stroke:#000;stroke-width:.52916664;stroke-miterlimit:4;stroke-dasharray:none;stroke-opacity:1" d="M101.0974.2646v15.2306H96.212v1.2934h4.8854v56.1821h6.179v-56.182h4.5977v-1.2935h-4.5977V.2646zM164.768 7.584c-.5174-.0142-1.2588.8731-.336.9938 5.2585.8625 10.7585 2.065 15.131 5.2456-1.0095.4118 1.1118 1.5328.8242.5396-.5703-.373 1.0374.2433 1.0051.6407-.6645.5356.6922 1.2671 1.0764.7266 1.9113 1.1532 3.5261 2.8044 4.9971 4.4638a.6955.6955 0 0 0-.3844.094c-5.447-4.5352-11.8655-6.8042-19.2562-6.8042-1.5843 0-3.126.1062-4.6256.3194-.0513-.0222-.1106-.033-.1344-.0388-.0832.0257-.1401.0556-.1751.0869-3.9279.5992-7.5638 1.9346-10.9068 4.0075.1769-.6005 1.4662-.6657 1.5538-1.4242-.1104-.1145-.2898-.1085-.4366-.1168-1.0474.045-2.6743.595-2.05 1.9657a.7505.7505 0 0 0 0 .1773 30.6836 30.6836 0 0 0-.7199.4981c-.0453-.1459-.1473-.254-.3328-.235-.6951-.1137-.718.5044-.461.8221a32.1246 32.1246 0 0 0-.588.4594c-.1017-.3395-.379-.6889-.6677-.7038-.8062.03-.5505.9957-.0806 1.3229a34.8957 34.8957 0 0 0-2.0732 1.9115c-5.005 4.9256-7.9324 10.7415-8.7866 17.446-.0932.3107-.1169.6752-.1183 1.0547a33.6965 33.6965 0 0 0-.1302 2.1606c-.1483.384-.4434.6315-1.0212.6247-.5294.5995.4427.8526.8382.615-.003.2622.0826.607.1881.9792.0321.9385.101 1.862.2098 2.77-.1305.1397-.321.2381-.5916.281-.7026.437.2923 1.0714.695.4956.9373 6.4368 3.8423 12.093 8.7168 16.9674 2.0795 2.0796 4.3013 3.8006 6.6652 5.1636-.344.207.3301.4796.3674.2056.483.2693.9713.525 1.466.7648-.4597.4805-.6559 1.3804-.1663 1.774.732.421 1.5626.2772 2.0216-.4082.3145.0504.5525-.0803.6997-.2795 1.8753.692 3.8284 1.1883 5.8596 1.4878.0846.4816.405.8691.9012.4986.0409-.0847.0822-.2169.1157-.3648 1.2281.14 2.4832.2103 3.7668.2103 1.2738 0 2.5158-.0635 3.7263-.1902.0415.1588.2346.2294.6119-.0082.0725-.0182.1305-.0496.1819-.0852 5.3493-.6906 10.0656-2.647 14.1495-5.8684-.798.7392-1.6472 1.4287-2.5549 2.0552-1.7405 1.7986-4.4592 2.4992-6.0699 4.3429 1.0351.8323 2.8915-1.5795 3.976-1.8842 2.786-1.961 5.2646-4.346 7.4244-6.9944 1.042-1.0501 2.036-2.1952 2.9822-3.437v10.0578h6.322V44.233c0-4.494-.8392-8.628-2.516-12.4033-4.3301-13.272-17.2045-23.3749-31.1904-24.2306a.3935.3935 0 0 0-.1002-.015zm-126.736.0538c-.5174-.0143-1.2592.873-.3364.9937 5.2584.8625 10.759 2.065 15.1314 5.2457-1.0095.4118 1.1119 1.5332.8243.54-.5703-.3729 1.0374.2434 1.005.6408-.6644.5356.6923 1.2666 1.0765.726 1.9113 1.1532 3.526 2.805 4.9971 4.4644-.1616-.0074-.3.0362-.4144.1095-5.4651-4.5822-11.9116-6.874-19.3405-6.874-5.767 0-10.973 1.413-15.6192 4.2375.3597-.4328 1.3682-.5636 1.4454-1.2325-.1104-.1145-.2898-.109-.4366-.1173-1.0474.045-2.6749.5956-2.0506 1.9663-.0026.0167 0 .0326 0 .049a30.633 30.633 0 0 0-.7642.5251c-.0577-.0893-.1476-.148-.2858-.1338-.6316-.1032-.7084.3978-.5245.7286-.1888.1435-.377.2891-.5638.4377-.1245-.299-.3725-.5753-.6284-.5886-.7514.028-.5812.871-.1741 1.2506a34.8931 34.8931 0 0 0-2.0945 1.9296c-5.8582 5.7652-8.8723 12.7493-9.0439 20.9517-.1716.2455-.4494.3933-.8976.388-.5295.5996.4427.8526.8382.615-.0026.1408.0217.3046.0594.4832.0241 1.1399.106 2.2569.2424 3.3523-.1234.094-.2854.1619-.4961.1953-.6544.407.1643.9845.6051.5968.9613 6.3723 3.8574 11.9769 8.6925 16.812 2.1107 2.1107 4.3685 3.8509 6.7722 5.2234-.3188.2038.322.4644.3731.2088a28.822 28.822 0 0 0 1.4666.7576c-.4587.4809-.6539 1.3786-.1649 1.772.7322.4208 1.5626.2775 2.0216-.4078.3193.0512.5604-.0844.707-.2889 1.8714.681 3.8196 1.168 5.8456 1.4594.074.499.3987.9166.908.5364.0448-.093.0912-.2401.126-.4062a33.3068 33.3068 0 0 0 3.6422.1974h.033a.2817.2817 0 0 0 .1473-.0026c1.248-.0058 2.4657-.0725 3.6525-.2005.0026.2019.1924.3267.6191.0579.1232-.031.214-.0938.274-.1664 5.7478-.7795 10.7598-3.0307 15.0377-6.75-1.0709 1.1107-2.2443 2.1278-3.5346 3.0184-1.7405 1.7986-4.4592 2.4992-6.07 4.3429 1.0352.8323 2.8916-1.58 3.976-1.8846 3.1535-2.2198 5.915-4.9806 8.2636-8.0543a35.7448 35.7448 0 0 0 2.0283-2.4309v10.0578h6.3226V44.2324c0-4.1494-.717-7.9913-2.1466-11.528C65.5212 19.0299 52.4063 8.526 38.1334 7.6527a.393.393 0 0 0-.1003-.0156zm124.5842 2.3657c-1.0126.01-.1998.7106.3157.1788.041-.1628-.2171-.155-.3157-.1788zm2.3006.018c-1.1283.043.054.6409.4966.2429.018-.215-.3562-.225-.4966-.2429zm-129.0365.0362c-1.0126.01-.1998.7106.3157.1788.041-.1628-.2171-.1551-.3157-.1788zm2.3006.0174c-1.1283.043.054.6414.4966.2434.018-.215-.3562-.2255-.4966-.2434zm122.316.0125c-1.064.0158-.3383.7834.3168.323.514-.2064-.109-.3277-.3168-.323zm6.4472.0206c-1.157.3703 1.3568.6748.323.0992-.097-.056-.2197-.0872-.323-.0992zm-133.1831.033c-1.0641.016-.3383.7836.3168.323.514-.2063-.1091-.3276-.3168-.323zm6.4471.0213c-1.157.3702 1.3568.6742.323.0986-.097-.056-.2197-.0867-.323-.0986zm118.1696.1276c-1.0441-.055-.9243.8583.0873.4547.3055-.071.2271-.4937-.0873-.4547zm-126.736.0537c-1.044-.055-.9247.8589.0869.4553.3055-.071.2276-.4943-.0868-.4553zm137.3808.028c-1.011.1978.8583.9515.6522.2392-.1916-.1276-.4269-.2378-.6522-.2393zm-126.736.0542c-1.011.1979.8583.951.6522.2387-.1916-.1276-.4268-.2372-.6521-.2387zm113.8262.2248c-.8333.0301-.861.9222.1183.478.2422-.061.4137-.4651.059-.4718a1.287 1.287 0 0 0-.1773-.0061zm-126.736.0542c-.8332.0302-.861.9222.1184.478.2422-.061.4136-.465.059-.4717-.0627-.0063-.1218-.0082-.1773-.0063zm141.8818.1003c-1.189.2228 1.2095 1.0538.6165.1752-.1724-.1412-.4158-.1498-.6165-.1752zm-126.7359.0543c-1.189.2228 1.2094 1.0537.6165.1751-.1724-.1411-.4159-.1497-.6165-.1751zm109.3835.3829c-.721-.0228-.7528.9292.0636.476.2527-.1036.5444-.4666.09-.458a.9089.9089 0 0 0-.1536-.018zm-126.7359.0537c-.721-.0227-.7534.9298.063.4765.2527-.1035.545-.467.0905-.4584a.91.91 0 0 0-.1535-.018zm118.7462.1034l-.006.0037c-6.1998 2.858-11.14 8.1642-14.9158 13.8007-1.4858 2.6876-3.2597 5.4922-3.6773 8.5586.654.4044 1.0612-.9275 1.172-1.4288.7633-2.5124 1.942-4.8675 3.4117-7.01.9071-1.5317 1.9653-3.0415 3.1062-4.3898.7102-.7915 1.329-1.6268 2.14-2.326 2.3895-2.3377 5.1098-4.3426 8.091-5.8896.527-.7054 1.3708-.788 2.0515-1.1358-.1884-.4716-.959.3683-1.3018-.1731zm27.2934.0037c-.7398.443 1.4705.9098.7618.2351-.2342-.1304-.4966-.2044-.7618-.2351zm-154.0293.0501l-.0058.0037c-6.1998 2.858-11.14 8.1647-14.916 13.8012C2.7732 27.946.9992 30.7506.5816 33.817c.6541.4044 1.0612-.9275 1.172-1.4289.7633-2.5124 1.9416-4.868 3.4112-7.0104.9072-1.5318 1.9659-3.0416 3.1068-4.3899.7102-.7915 1.3289-1.6262 2.1399-2.3254 2.3896-2.3377 5.1099-4.3432 8.091-5.8901.527-.7055 1.3708-.7875 2.0515-1.1353-.1884-.4716-.959.3683-1.3017-.1732zm27.2934.0037c-.7398.4431 1.4704.9099.7617.2352-.2342-.1304-.4965-.2045-.7617-.2352zm105.5124.5318c-.029-.0045-.064-.0045-.1064 0-.9776-.035-.8413 1.0262.032.3658.1706-.0947.2773-.335.0744-.3664zm-126.7359.0537c-.029-.0045-.064-.0045-.1064 0-.9776-.035-.8413 1.0263.032.3659.1706-.0948.2774-.335.0744-.3664zm150.0999.0755c-.9907.1977 1.4199 1.2499.9338.354-.2538-.2201-.6013-.3506-.9338-.354zm-126.736.0542c-.9906.1977 1.42 1.25.9339.354-.2538-.22-.6013-.3506-.9338-.354zm101.2321.6801c-1.1016.049-.7944 1.0499.0961.277.2415-.1447.054-.2983-.096-.277zm-126.6786.0537a.2119.2119 0 0 0-.0573 0c-1.1016.049-.7944 1.05.0961.277.2113-.1266.0943-.2603-.0388-.2775zm154.3875.093c-1.0415.2756 1.1894 1.256.7845.338-.1888-.229-.5292-.3171-.7845-.338zm-126.7359.0538c-1.0415.2755 1.1894 1.256.7844.338-.1887-.229-.5291-.3172-.7844-.338zm97.023.6764c-.7482.01-1.0553 1.0782-.1163.4843.1835-.071.4852-.4553.1163-.4843zm-126.736.0543c-.7481.01-1.0553 1.0776-.1162.4837.1834-.071.4852-.4548.1163-.4837zm68.1525.1313c-2.9696 0-5.173 1.0057-6.61 3.0174v-1.4371h-6.1784v57.4755h6.1785V20.2369c.479-2.3947 1.6767-3.9754 3.5925-4.7418-.5747.7664-.862 1.5328-.862 2.2991 0 2.4906 1.293 3.7362 3.8794 3.7362 2.5864 0 3.8794-1.2456 3.8794-3.7362 0-2.5864-1.293-3.8793-3.8794-3.8793zm39.5707 0c-2.9696 0-5.173 1.0057-6.6099 3.0174v-1.4371h-6.1784v57.4755h6.1784V20.2369c.479-2.3947 1.6767-3.9754 3.5925-4.7418-.5747.7664-.8625 1.5328-.8625 2.2991 0 2.4906 1.2935 3.7362 3.88 3.7362 2.5863 0 3.8793-1.2456 3.8793-3.7362 0-2.5864-1.293-3.8793-3.8794-3.8793zm28.3394.248c-.8862.1744.449.7743.1478.0682-.036-.042-.1037-.0622-.1478-.0682zm94.8334.0393c-5.1727 0-8.9564 2.347-11.3512 7.041v-5.6044h-6.179v57.3319h6.179v-47.561c.479-2.8737 1.772-5.2208 3.8794-7.0408 2.1074-1.9159 4.598-2.8738 7.4719-2.8738 1.6284 0 3.0655 1.1499 4.3108 3.449 1.3411 2.2031 2.0113 4.8374 2.0113 7.9028v46.1238h6.0352V26.8469c0-3.3527-1.2455-6.2748-3.7362-8.7654-2.3948-2.5864-5.2684-3.8793-8.6211-3.8793zm-221.5699.0145c-.8862.1744.4496.7744.1483.0682-.036-.042-.1042-.0622-.1483-.0682zm10.5425.5602c.3647 0 .7259.0098 1.0847.0265.0932.1283.3926.18.3897.0217 6.168.3893 11.472 3.2456 15.9117 8.573 4.5332 5.44 6.9201 11.9533 7.1628 19.5384-.7173.604-.2292 1.9991-.927 2.7358.1772.3214.5881.3107.9182.1235-.2893 7.4719-2.6737 13.8958-7.154 19.2722-.0223.0265-.0445.0521-.0667.0786-.1414-.1022-.2959-.1812-.4615-.2166-.6754.1771.0613 1.3264-.7607 1.1565-.5296.5294-2.0014.4942-1.7125 1.5426a1.18 1.18 0 0 0 .1834.3845c-.0824.0743-.1656.1462-.2485.219-.1678-.2742-.4353-.4965-.7349-.5193-.682.1229-.4913.8084-.1064 1.2268a23.0078 23.0078 0 0 1-2.063 1.4806c-.0407-.7392-1.1753-.7547-1.3637-1.5162-.3681-.5704-1.7674.7717-1.281-.2253.4573-.3957.6669-1.1985-.0548-1.4093-.958.625-3.43.8546-3.3363 2.2976.757 1.2726 2.161-.9983 3.0231.1793.5335.4424.9364 1.091 1.7617.5002.1918.0841.4543.3919.7105.5064-1.9517 1.1628-4.0246 1.9796-6.2182 2.451-.0384-.412-.2902-.7953-.738-.8154-.5676.0111-.654.5632-.5048 1.0434-.9554.146-1.9327.2299-2.9321.25-.0768-.2476-.2145-.452-.4476-.508-.3439.003-.5074.2233-.5555.5076-3.8273-.0861-7.3379-1.1227-10.5316-3.1094.091-.1107.1065-.284.0045-.5452-.666-.416-1.3846-.7554-2.141-.9633-1.4196-1.1268-2.7711-2.4578-4.0535-3.9966-4.7896-5.7476-7.1846-12.6925-7.1846-20.835 0-7.8037 2.2016-14.5068 6.6012-20.1108.3603-.2278.6906-.52.9663-.7767a1.5731 1.5731 0 0 1-.0423-.3468 29.866 29.866 0 0 1 1.4045-1.5229c.0456-.0193.091-.04.1365-.0584.1484.9096 1.5149.8024 1.344-.1855.3582-.7855 1.6388-1.3054 2.3663-1.0139-.2414.8671 1.1854 1.6356 1.5979.8418-.4194-.7259-.4767-1.6783.681-1.5151 1.0588-.2055.567 1.6027 1.603 1.2258 1.2561.3805.0779-1.6277 1.23-1.5731.8759.122 3.0617-.592 3.3465.4124-.7348.603.241 1.5707.7225.7793.2575-.547-.6325-1.1485.4144-.8578.7395-.4298.2703-1.4668-.5865-1.2207-1.8852-.1059-3.775-.0261-5.6622-.0372.0297-.785.4778-1.4317.7467-2.1265 1.316-.507 2.6788-.8729 4.0886-1.098a.542.542 0 0 0 .4197.093c.4151.1753 2.1988.264 1.8458-.3329.3978-.0209.7988-.032 1.2036-.032zm126.8502 0c.3432 0 .6835.0093 1.0216.0238.1068.077.2857.0996.3292.0154 6.2209.3587 11.5664 3.2187 16.0357 8.5819 3.3465 4.0158 5.522 8.6174 6.5304 13.8022.023.2697.0847.5593.153.8444.2629 1.5644.4222 3.1801.4774 4.8483-.0284-.012-.0558-.0249-.0884-.0336-.756.5916-.2445 2.0129-.9508 2.7585.1993.3614.6935.3036 1.0366.046-.2663 7.528-2.6516 13.996-7.1582 19.404-.0278.0334-.0563.0654-.0842.0987-.1664-.1386-.354-.2468-.5581-.2904-.6755.177.0608 1.3263-.7612 1.1565-.5296.5294-2.0015.4946-1.7126 1.543.0541.1966.1454.354.2568.4744-.088.079-.1765.1562-.265.2336-.1589-.321-.4548-.5986-.7917-.6243-.7279.1312-.464.9067-.0284 1.3106a22.9032 22.9032 0 0 1-2.186 1.5513c.0168-.0275.0333-.0543.0492-.0879.028-.8078-1.1738-.7979-1.368-1.5823-.368-.5704-1.7673.7713-1.281-.2258.4573-.3957.667-1.1984-.0548-1.4092-.9579.6249-3.43.8545-3.3362 2.2975.7569 1.2726 2.1609-.9983 3.023.1793.5336.4424.9364 1.0915 1.7617.5008.2268.0994.5517.51.849.5457-1.9917 1.1901-4.1095 2.0198-6.3536 2.4892-.0116-.4404-.2652-.8716-.741-.893-.595.0117-.662.6172-.4821 1.1116-.9573.142-1.9365.2211-2.9378.2372-.0722-.273-.214-.5037-.4646-.5638-.3648.003-.5285.2502-.5643.5597-3.8217-.1064-7.3253-1.1658-10.513-3.174.0822-.1112.093-.2812-.005-.5328-.6442-.4023-1.338-.732-2.0671-.9415-1.4048-1.12-2.7427-2.44-4.0127-3.9641-4.7897-5.7476-7.1846-12.6926-7.1846-20.835 0-7.9438 2.2804-14.7472 6.8394-20.4116.2231-.1735.4305-.3595.6134-.5297a1.6812 1.6812 0 0 1-.0305-.1726c.5055-.5928 1.021-1.155 1.5477-1.6846.2087.8286 1.4915.7038 1.3255-.2563.358-.7856 1.6393-1.306 2.3668-1.0145-.2414.8671 1.1848 1.6362 1.5973.8424-.4194-.726-.4766-1.6784.681-1.5152 1.0589-.2055.567 1.6028 1.603 1.2258 1.2562.3806.0779-1.6276 1.23-1.573.876.1218 3.0623-.5926 3.347.4118-.7347.603.2405 1.5712.722.7798.2575-.5469-.6324-1.149.4145-.8583.7394-.4297.2702-1.4663-.5866-1.2201-1.8852-.106-3.775-.0262-5.6622-.0372.0281-.7403.424-1.359.695-2.0097.4933-.1951.9938-.3683 1.5003-.5235-.5817.3332-.8533 1.1288.0413 1.3978 1.3124.8418 1.5747-1.292.5297-1.5482-.0228 0-.0447.0026-.0672.0032a20.3928 20.3928 0 0 1 2.237-.4883.5443.5443 0 0 0 .3189.0372c.401.1693 2.0778.2574 1.8743-.2744a22.827 22.827 0 0 1 1.2893-.0367zm-21.8974.0201c-.5179.019-1.25.9267-.337.5922.1088-.056.775-.4875.4372-.5834a.3796.3796 0 0 0-.1002-.0087zm-126.736.0537c-.5178.0191-1.2499.9268-.3369.5923.1087-.056.775-.4876.4372-.5835a.3926.3926 0 0 0-.1002-.0087zm182.836.6445v46.268c0 3.4485 1.2455 6.4183 3.7361 8.909 2.4906 2.4905 5.46 3.7356 8.9085 3.7356 3.4486 0 6.37-1.245 8.7649-3.7357 2.4906-2.4906 3.7362-5.4604 3.7362-8.909v-46.268h-6.3226v46.268c0 3.0654-.6223 5.7475-1.8676 8.0466-1.2453 2.2032-2.6824 3.3047-4.3109 3.3047-3.1611 0-5.8433-1.1015-8.0465-3.3047-2.2032-2.299-3.3047-4.9812-3.3047-8.0466v-46.268zm-166.591.095c-.8941-.034-1.688 1.2-.5301 1.5483 1.3124.8418 1.5752-1.2922.5302-1.5483zm128.5328.0398c-1.1311 0-.652 2.4374.4671 1.4066.1533-.4397.2177-1.4113-.4671-1.4066zm1.2795.0532c-.9776.2484-.5565 2.4828.4496 1.4217.2664-.4695.2362-1.4009-.4496-1.4217zm-128.0154 0c-1.1311 0-.652 2.4369.4671 1.4062.1533-.4398.2177-1.4109-.4671-1.4062zm1.279.0527c-.9776.2485-.5566 2.4828.4495 1.4217.2664-.4695.2362-1.4009-.4496-1.4217zm112.881.073c-.9939.7305.9653.667 0 0zm-126.736.0542c-.9938.7306.9654.667 0 0zm119.4857.1235c-.6809.094-1.4445 1.3218-.2594.542.1399-.079.5217-.4049.2594-.542zm-126.736.0543c-.6808.094-1.4444 1.3217-.2593.542.1399-.079.5217-.405.2594-.542zm150.566.3917c-.4992 1.564 1.6838 1.1232 2.171 2.0453-.2823.668.9034 1.0696.8723.2284.6766-1.5554-.6915-2.1925-2.034-2.2479-.336-.0201-.6728-.0159-1.0092-.026zm-126.7359.0537c-.4992 1.564 1.6837 1.1238 2.171 2.0459-.2823.668.9034 1.0696.8723.2284.6766-1.5554-.6915-2.193-2.034-2.2485-.336-.02-.6728-.0158-1.0093-.0259zm133.2772.0336c-.6293.3956.781.5209.1876.0429-.052-.056-.1303-.012-.1876-.0429zm-126.7365.0543c-.6293.3956.7816.5209.1881.0429-.052-.056-.1308-.012-.188-.043zm-16.4816.5328c.4192.3872.2936 1.1282.939 1.2469-1.6639.4479-3.3749.9287-5.04 1.5307.9016-.7626 1.8313-1.4408 2.79-2.0325-.1928.3327.1366.9378.6893.5814.2358-.196.0762-.8671-.324-.7777-.0188 0-.0338.0056-.0512.0077.329-.1955.6613-.381.9969-.5566zm126.8077.0217c.3347.401.2617 1.06.8672 1.1715-1.5627.4206-3.1663.8723-4.7352 1.4242.79-.6547 1.6022-1.2432 2.4356-1.7679-.0406.33.2664.728.739.4232.2018-.1678.1131-.6826-.1675-.7715.2846-.1671.5713-.3272.861-.4795zm-15.873.2527c-.5525.091-.9321 1.1654-.092.5286.1334-.11.3173-.4488.092-.5286zm-126.7358.0537c-.5527.091-.9322 1.166-.092.5292.1333-.1101.3171-.4494.092-.5292zm158.9897.9617c-.6354.2003-1.7533 1.3246-.6532 1.7343.3073.2864 1.9102 1.1118 1.7126.1023-.4818-.4371-.592-.9506-.601-1.543-.085-.1758-.274-.2806-.4584-.2936zm-126.7359.0543c-.6354.2003-1.7533 1.3241-.6532 1.7337.3073.2864 1.9102 1.1123 1.7126.1028-.4818-.437-.592-.9505-.601-1.543-.085-.1757-.274-.2805-.4584-.2935zm98.394.1312c-.7766.2748.3579.6502.0894.0362-.021-.0159-.0644-.0452-.0894-.0362zm-126.736.0543c-.7765.2748.3574.6502.089.0362-.021-.016-.064-.0452-.089-.0362zm121.1446.2077c-.5607-.056-1.055 1.3007-.2393.6046.1357-.086.6586-.5569.2393-.6046zm-126.7364.0538c-.5607-.056-1.0545 1.3007-.2388.6045.1357-.086.658-.5568.2388-.6045zm166.039.6056c-1.6579.1675-1.0445 1.3324.1074 1.852.6103.8896 1.5966-.053.66-.6071-.6632-.2698-.5304-.8443-.7675-1.2449zm-126.736.0542c-1.6578.1676-1.0444 1.3324.1075 1.8521.6103.8895 1.5966-.053.6599-.6072-.6631-.2698-.5303-.8442-.7674-1.2449zm115.1743.5959a.5841.5841 0 0 0-.1359.0145c-1.0242-.1099-.9762 2.2375.2564 1.5167.5114-.1767.5151-1.512-.1205-1.5311zm-126.7359.0537a.5955.5955 0 0 0-.1359.0146c-1.0242-.11-.9762 2.238.2563 1.5172.5115-.1767.5152-1.5126-.1204-1.5317zm97.4618.0951c-.3568.047-1.2312 1.123-.3783.7963.2029-.092.715-.6237.3783-.7963zm-126.7365.0543c-.3568.047-1.2306 1.1224-.3777.7958.2029-.092.7145-.6232.3777-.7958zm158.9862.0945c-.6.378.6931.9246.3658.1938-.085-.1166-.2228-.1875-.3658-.1938zm-126.736.0538c-.5999.378.6932.9246.366.1938-.0851-.1166-.223-.1875-.366-.1938zm143.3985.308c.472.0646.9815.9896 1.3917 1.4268.238.1749.3343.3178.3472.4433-.0495-.0492-.0974-.0992-.1472-.1483a33.953 33.953 0 0 0-1.7865-1.6882c.0641-.0283.1289-.0427.1948-.0336zm-126.736.0537c.472.0646.9816.9901 1.3917 1.4273.2769.2035.362.3636.3457.5034-.0869-.0874-.1722-.1757-.2604-.2626a34.0212 34.0212 0 0 0-1.7069-1.6195c.0754-.0424.152-.0593.23-.0486zm108.7356.0357c-.8586.071-.6032 1.603.2547 1.0413.5517-.2296.2816-1.0413-.2547-1.0413zm-126.736.0537c-.8586.071-.603 1.6036.2548 1.0418.5517-.2296.2815-1.0418-.2548-1.0418zm102.0739.2197c-1.3269.168-.072 2.2569.6785 1.1498.088-.4382-.235-1.0405-.6785-1.1498zm13.332.0037c-.9302.018-1.57 1.4499-.4398 1.7384.1098-.7494.7904-.7955 1.2346-1.1814.1568-.3725-.3173-.5565-.6051-.541a.9314.9314 0 0 0-.1897-.0161zm-140.068.0501c-1.3268.168-.072 2.2574.6786 1.1503.088-.4382-.2351-1.041-.6785-1.1503zm13.332.0042c-.9302.018-1.57 1.4494-.4397 1.7379.1098-.7494.7904-.795 1.2346-1.1808.1568-.3725-.3179-.5566-.6057-.541a.926.926 0 0 0-.1891-.0162zm134.7929.5478c-.619.2077.053 1.1834.417.4868.1213-.288-.1697-.4962-.417-.4868zm-126.7365.0542c-.619.2077.053 1.1834.417.4868.1214-.288-.1697-.4962-.417-.4868zm101.5432.5065c-.8138.3775.5986.7444 0 0zm-126.7365.0537c-.8137.3775.5987.7444 0 0zm165.375.0265c-1.2928.1015.4143 1.785.5105.353-.022-.2568-.2972-.3383-.5105-.353zm-126.736.0537c-1.2928.1015.4144 1.785.5106.353-.022-.2567-.2973-.3383-.5106-.353zm100.351.6377c-.7907.2471.1449 1.4073.4522.5917.054-.2748-.1676-.5988-.4522-.5917zm-126.736.0538c-.7906.247.145 1.4078.4523.5922.054-.2748-.1676-.5993-.4522-.5922zm157.2163.3446c-.8376.1354.3425.8133.1742.109-.036-.063-.1194-.094-.1742-.109zm-126.736.0538c-.8375.1354.3425.8132.1742.109-.036-.063-.1193-.094-.1741-.109zm124.3243.2568c-1.1518.1027.05 1.7162.493.785.2028-.3702-.1072-.7742-.493-.785zM55.05 23.877c-1.1517.1027.05 1.7161.493.785.2028-.3703-.1071-.7742-.493-.785zm123.2515 1.6278c-.5124.4234-.8196 1.1733-1.4816 1.3978-.144.3043-1.0244.685-.3726.9968.4842-.4753.9087-.9448 1.7337-.7963.8804-.8389 1.8223 1.0238.6026 1.2899.053.5245-1.4742.7885-.479.8785.4842.5509.635 1.3811 1.1963 1.9595.4863 1.3144 1.8136-.7812 2.7037-.032 1.0066.3756.441-1.1001-.046-1.3348-1.2051-1.3658-2.2017-3.5818-3.8567-4.3594zm-126.736.0537c-.5123.4234-.8196 1.1739-1.4816 1.3984-.1439.3043-1.0249.685-.373.9968.4841-.4753.9092-.9448 1.7342-.7963.8804-.839 1.8223 1.0232.6026 1.2893.053.5245-1.4742.789-.4791.879.4843.551.635 1.3807 1.1963 1.959.4864 1.3145 1.8136-.7812 2.7037-.032 1.0066.3756.441-1.0996-.046-1.3342-1.205-1.3659-2.2016-3.5824-3.8566-4.36zm88.9155.493c-1.0012.09-.0398 1.5778.4418.6537.2337-.2892-.1563-.6468-.4418-.6537zm-126.736.0537c-1.0011.09-.0397 1.5784.442.6543.2336-.2892-.1564-.6474-.442-.6543zm138.0196.6279c-.5436.3574.306.4306 0 0zm-126.736.0543c-.5436.3574.306.4306 0 0zm112.6107.2739c-.6636.207.3976.6695.2073.0899-.054-.057-.1303-.085-.2073-.09zm-126.736.0542c-.6635.207.3977.6696.2073.09-.054-.057-.1302-.085-.2072-.09zm127.57 1.0806c-.8446.074-.069 1.3229-.9472 1.263-.5848.7452-.5015 1.9343-1.3849 2.4329-.7262 1.1358 1.9494 1.3559 1.4371.0249.2586-.6841 1.0223-1.0307 1.2315-1.7053-.3504-.732 1.2443-.6768.4718-1.4346-.2163-.242-.5253-.4793-.8082-.5808zm49.166.031c-.9976.5974 1.029.8038 0 0zm-175.9018.0233c-.8448.074-.0692 1.3223-.9473 1.2624-.5849.7452-.5015 1.9344-1.385 2.433-.7261 1.1358 1.9494 1.3564 1.4372.0254.2586-.6841 1.0223-1.0307 1.2314-1.7054-.3503-.7319 1.2444-.6767.4719-1.4345-.2163-.242-.5254-.4793-.8082-.5808zm49.166.031c-.9978.5974 1.029.8038 0 0zm126.1442 2.5843c-.9812.2316-.2624 1.3664-.2408 2.0014.98.5814 1.306 1.4113 1.1436 2.6076-.066 1.468 2.5664.4651 1.4893-.5746-.2754-.9152-1.3426-1.2977-1.0853-2.3482.022-.7394-.6922-1.4205-1.3068-1.6862zm-126.736.0543c-.9812.2316-.2629 1.3659-.2413 2.0009.9801.5814 1.3065 1.4112 1.1441 2.6076-.066 1.4679 2.5664.4656 1.4894-.5741-.2755-.9152-1.3427-1.2977-1.0853-2.3482.022-.7394-.6923-1.4205-1.3069-1.6862zM183.2 32.4283c-1.1899.3517.661 2.0806.7907.8837-.05-.4068-.3762-.8479-.7907-.8837zm-48.2482.0098c-.8239.3538.8102.341 0 0zm-78.4877.044c-1.1899.3516.661 2.0805.7907.8836-.05-.4068-.3762-.8479-.7907-.8837zm-48.2482.0103c-.8239.3538.8102.341 0 0zM190.124 33.606c-.8043.2787.4931.9921.246.1472-.043-.09-.1455-.1551-.246-.1472zm-126.7365.0542c-.8043.2787.4937.9917.2465.1468-.043-.09-.146-.1547-.2465-.1468zm66.291.6863c-.9093.069-.8487 1.3302-1.592 1.7384-.4545.7532-1.4083 1.549-.8962 2.5063.096 3.6865-.6952 7.6073.538 11.158.7071.2867.7937-1.0293.5788-1.4935-.217-2.5907-.309-5.199-.1018-7.7933 1.474-.2112 1.404-2.0364 1.3715-3.1641-.6085-.048-1.2764-.8033-.6279-1.2201.7851.039 1.9008.0227 1.7348-1.1007-.012-.5037-.6095-.6233-1.0051-.631zm-126.7359.0537c-.9093.069-.8492 1.3302-1.5926 1.7384-.4544.7532-1.4077 1.5495-.8956 2.5069.096 3.6865-.6952 7.6072.538 11.158.707.2866.7936-1.0298.5787-1.494-.2169-2.5907-.309-5.1986-.1018-7.7928 1.4741-.2112 1.4035-2.0364 1.371-3.1642-.6085-.048-1.2758-.8038-.6273-1.2206.785.039 1.9007.0233 1.7347-1.1002-.0119-.5037-.6095-.6238-1.005-.6315zm181.4293.368c-.1278.2727-.053 1.8498.4511 1.3027.1253-.3973.0259-1.1838-.4511-1.3027zm-126.736.0542c-.1278.2727-.0528 1.8499.4512 1.3028.1253-.3973.0259-1.1839-.4512-1.3028zm72.9702 1.8955c-.792.032-1.0484 1.1465.01 1.0439.6489.4467 1.8124-.5477.737-.8749-.2312-.1001-.5127-.1328-.7426-.169zm-126.7359.0538c-.792.032-1.0485 1.147.0098 1.0443.6488.4467 1.8123-.5481.737-.8754-.2312-.1-.5128-.1327-.7427-.169zm130.8024 1.124c-.9932.07-.2967 1.5416.3648.7498.2786-.3044.0602-.7996-.3648-.7499zm-126.736.0542c-.9932.07-.2966 1.5416.3649.7498.2786-.3043.0601-.7995-.3649-.7498zm182.0489.2057a.9996.9996 0 0 0-.1804.0248l-.2072-.0098-.064-.0032c-1.0586-.1587-.7785 1.5904.2071 1.1349.8506.157 1.0757-1.1766.2445-1.1467zm-56.6684.0485c-.677.1165.198.5659.0569.0202.011 0-.0838-.0212-.057-.0202zm-70.0675.0056a.9995.9995 0 0 0-.1804.025l-.2072-.0099-.0641-.0037c-1.0585-.1587-.7784 1.5904.2072 1.1348.8506.157 1.0757-1.176.2445-1.1461zm-56.6684.0486c-.677.1165.198.5654.0568.0196.0111 0-.0838-.0206-.0568-.0196zm178.5756.1875c-.451.651-.9572 1.4323-.589 2.298-.1483.6893.331 2.2784 1.2267 1.9359.853-1.201.1594-3.0222-.5038-4.1801-.037-.03-.0854-.0543-.1339-.0543zm-126.7359.0543c-.4511.651-.9572 1.4323-.5891 2.298-.1482.6893.331 2.2789 1.2268 1.9364.853-1.201.1588-3.0227-.5044-4.1806-.037-.03-.0848-.0538-.1333-.0538zm133.0642.8134c-.792.1937.082 1.2616.321.3457.067-.2155-.1548-.3338-.321-.3457zm-126.736.0537c-.792.1938.082 1.2622.321.3463.067-.2155-.1547-.3344-.321-.3463zm69.6671.6253c-.1032-.0056-.218.0095-.343.0512-1.1036-.037-.5076 1.5334.3834 1.173.8378-.1299.6821-1.1852-.0403-1.2242zM7.68 40.0468c-.1032-.0056-.2175.0095-.3426.0511-1.1035-.037-.5076 1.5335.3834 1.1731.8378-.13.6817-1.1852-.0408-1.2242zm122.9243.4444c-.7524-.01-1.2387.6965-.7478 1.3395-.038.5603.313 2.1928 1.0852 1.252.072-.7637 1.0388-1.966.1949-2.4866-.166-.071-.351-.1171-.5323-.1049zm-126.736.0537c-.7524-.01-1.2386.697-.7477 1.34-.038.5603.3129 2.1928 1.0852 1.2521.072-.7638 1.0387-1.9666.1948-2.4872-.166-.071-.3508-.117-.5322-.1049zm126.7773 3.2975c-.824.1528-1.1428 1.4858-.4366 2.0113.2392 1.7967.2677 3.678.7808 5.395.621.6243 2.441-.3912 1.2712-1.0439-.6703-.5722.491-2.0242-.4056-2.8365-.6364-.9498-.3124-1.8856-.3959-2.8003-.1672-.3256-.4337-.7489-.8139-.7256zm-126.736.0543c-.824.1528-1.1428 1.4852-.4366 2.0107.2392 1.7967.2678 3.6781.7809 5.395.621.6243 2.4409-.3911 1.2712-1.0438-.6703-.5722.4905-2.0243-.4062-2.8366-.6364-.9498-.3119-1.8856-.3953-2.8003-.1672-.3256-.4337-.7483-.814-.725zm128.9958.2366c-.5879.183.2032.6466.201.0874-.046-.063-.142-.0753-.201-.0874zm-126.7359.0543c-.5879.183.2026.646.2005.0868-.046-.063-.1415-.0748-.2005-.0868zm179.7653.106c-.9685-.1107-.5646 1.8873-.0341 1.019.2023-.2329.5042-.9027.034-1.019zm-51.8346.046a.4497.4497 0 0 0-.0837 0c-.9523-.046-.5563 1.4637.2.7787.3221-.2003.2778-.749-.1163-.7798zm-74.9019.0081c-.9685-.1107-.564 1.8869-.0336 1.0186.2023-.233.5037-.9023.0336-1.0186zm-51.834.046a.4501.4501 0 0 0-.0838 0c-.9523-.046-.5562 1.4633.2.7783.3222-.2004.2778-.7486-.1162-.7793zm178.078 5.07c-2.078.3344-1.9893 2.8213-3.0965 4.1496-.215.4532-1.2524 1.7404-.327 1.897 1.3413-.4084 1.7078-1.8452 2.0267-2.9879 1.0253-.5309 1.0908-2.0142 1.6402-2.9192-.031-.1035-.1433-.1477-.2434-.1395zm-126.736.0537c-2.0778.3344-1.9892 2.8214-3.0964 4.1497-.215.4532-1.2524 1.7408-.3271 1.8975 1.3414-.4085 1.7078-1.8452 2.0267-2.9879 1.0253-.531 1.0908-2.0142 1.6402-2.9192-.031-.1035-.1433-.1482-.2433-.14zm75.0037.462c-.679.188.095.7812.107 1.1803.5743.6607 2.3888-.2675 1.3033-.9023-.5847.0101-1.002.0722-1.4103-.278zM6.974 50.0332c-.679.188.095.7817.107 1.1808.5743.6607 2.3888-.2676 1.3033-.9023-.5847.01-1.002.0717-1.4103-.2785zm120.8707.3855c-.3062.6609.5507 1.2716.2403.1984-.038-.1017-.1546-.1713-.2403-.1984zm-126.736.0537c-.3062.661.5507 1.2722.2403.199-.038-.1017-.1546-.1719-.2403-.199zm189.435.7121c-.7933.2998.7653.6166.1462.0357-.04-.042-.1013-.0127-.1462-.0357zm-126.736.0538c-.7933.2998.7654.617.1463.0361-.04-.042-.1014-.0132-.1463-.0361zm68.4687.5477c-.8266-.054-.7693 1.3802.1421.8966.3678-.1549.3275-.9217-.142-.8966zm-126.7359.0538c-.8266-.054-.7694 1.3802.1421.8966.3677-.155.3275-.9217-.142-.8966zm122.0582.4749c-1.2107.382-.2272 2.1424-.0873 2.9078 3.8932 12.3887 15.1524 22.08 28.0143 23.984 1.2955-.07 3.6008 1.2258 4.4503-.1575-.1617-1.7275-3.4509-.3898-4.5656-1.2682-8.0439-1.7498-15.7252-5.9748-20.7796-12.5574-3.1674-3.7615-5.0559-8.3567-6.8456-12.8633-.05-.04-.1244-.048-.1865-.046zM.8622 52.369c-1.2107.382-.2267 2.1429-.0868 2.9083 3.8932 12.3887 15.1524 22.08 28.0143 23.984 1.2955-.07 3.601 1.2252 4.4504-.158-.1617-1.7276-3.4509-.3893-4.5656-1.2677-8.0439-1.7498-15.7252-5.9753-20.7796-12.5579-3.1674-3.7615-5.0559-8.3562-6.8456-12.8628-.05-.04-.1244-.048-.1865-.046zm134.9949 1.404c-.702-.0265-1.4079 1.0518-.418 1.1715.672.196 1.5907-1.0398.558-1.1508a.6344.6344 0 0 0-.14-.0207zm-126.736.0543c-.7019-.0265-1.4078 1.0518-.418 1.1715.6721.196 1.5908-1.0399.5581-1.1509a.651.651 0 0 0-.14-.0206zm124.5625 1.7105c-.7198.0177-.5886 1.2799.1653.9338.3897-.1935.6324-.9058-.0102-.9199a.7234.7234 0 0 0-.155-.014zM6.947 55.5915c-.7198.0177-.588 1.28.166.9338.3895-.1934.6323-.9058-.0104-.9199a.7282.7282 0 0 0-.1556-.014zm128.743.0238c-1.0261.6467.7874.6145 0 0zm-126.7359.0543c-1.0261.6467.7873.6145 0 0zm179.7457.4578c-1.1031.1051-.9056 2.0154.2273 1.6656.7152-.405.7622-1.6539-.2273-1.6656zm-126.736.0538c-1.103.105-.9055 2.0153.2274 1.6655.7152-.405.7621-1.6538-.2274-1.6655zm121.6288 1.4226c-.7198.5688-1.1313 1.6942-1.4945 2.5213.6513 1.3183 1.8569-.4583 2.0738-1.1777.244-.4838-.017-1.247-.5793-1.3436zm-126.736.0543c-.7198.5688-1.1312 1.6942-1.4944 2.5213.6513 1.3183 1.8568-.4588 2.0737-1.1782.244-.4838-.0169-1.2466-.5793-1.3431zm78.2144.2093c-1.0042-.1-.6404 1.6662.2026.8.2832-.2442.2266-.816-.2026-.8zm-126.736.0542c-1.0041-.1-.6404 1.6658.2026.7995.2832-.2441.2267-.8155-.2025-.7995zm129.4118.2388c-.8705-.0201-.3556 1.3966.3013.723.3294-.2864.1173-.735-.3013-.723zm-126.736.0542c-.8704-.0198-.3555 1.3967.3013.723.3294-.2863.1174-.735-.3012-.723zm127.7515 2.5766c-.7065.3193.4431.5827.0831.0233.0102-.0201-.1115 0-.0831-.0233zm-126.736.0543c-.7064.3193.4432.5821.0832.0227.01-.0198-.1116 0-.0832-.0227zm128.08.2563c-1.0335.112-1.2537 1.2995-.4402 1.9224 1.0892.8182-1.5319 1.3713-.6558 2.2463 1.039.4187 1.4338-1.673 2.3616-.6614.9335.4606 1.5254-1.031.6335-1.54-.7328-.5184-1.0975-1.6667-1.899-1.9673zm-126.7359.0543c-1.0336.1119-1.2538 1.2994-.4403 1.9223 1.0892.8182-1.5318 1.3714-.6558 2.2464 1.039.4187 1.4339-1.673 2.3617-.6614.9335.4605 1.5253-1.0315.6335-1.5405-.7329-.5184-1.0976-1.6662-1.899-1.9668zm171.7828.5023c-.8103.3727.5902.7447 0 0zm-126.736.0542c-.8102.3727.5903.7447 0 0zm121.728.1214c-.889.078-.0587 1.428.3763.6.084-.298-.0452-.599-.3763-.6zm-126.7359.0543c-.889.078-.0588 1.428.3762.6.084-.298-.0452-.599-.3762-.6zm98.7909.274c-.956.0899-.0233 1.452.4036.635.1645-.2815-.11-.6205-.4036-.635zm-126.7365.0542c-.9559.09-.023 1.452.4041.635.1645-.2814-.1104-.6204-.404-.635zm123.9982.3286c-.9038.2615.8486 1.2651.558.3483-.1048-.2078-.3444-.3314-.558-.3483zm-126.736.0543c-.9038.2615.8486 1.2646.5581.3478-.1048-.2078-.3445-.3309-.558-.3478zm128.019 2.0355c-.7304.2825.4343.9239.4135.2693-.082-.1591-.2644-.2416-.4134-.2693zm-126.7359.0543c-.7304.2825.4343.9233.4135.2687-.082-.1591-.2644-.241-.4135-.2687zm119.9607.3793c-.5235.1743-.8053.5532-1.2253.019-.5805.1542-.0708.6722.3075.648.1976 1.003 1.9485 1.253 1.8294.026-.1682-.3638-.5004-.6722-.9116-.6925zm-126.7365.0543c-.5235.1743-.8047.5532-1.2247.019-.5805.1542-.0708.6716.3075.6475.1976 1.003 1.9484 1.2535 1.8293.0265-.168-.3639-.5009-.6722-.912-.6925zm147.2546.3545a1.0136 1.0136 0 0 0-.1705.0026c-.3767.3896-.4816 1.49-.3344 1.9668.3198.1118 2.0071.1917 1.5477-.3902-.3505-.5451-.2507-1.5233-1.0428-1.5782zm-126.736.0537a1.0689 1.0689 0 0 0-.1705.0026c-.3767.3896-.4815 1.49-.3343 1.9668.3198.1118 2.0071.1918 1.5477-.3901-.3505-.5452-.2508-1.5238-1.0428-1.5788zm119.7804.1354c-.967.116-.0444 1.1127.5245.5762.2094-.3267-.2387-.6073-.5245-.5762zm-126.7365.0537c-.9669.116-.0439 1.1127.525.5762.2094-.3267-.2392-.6073-.525-.5762zm150.3846.0517c-.7547.2743-2.0255.945-1.9833 1.834.8499.035 2.1625-.725 2.2495-1.636-.038-.1169-.1536-.187-.2662-.198zm-126.7359.0538c-.7547.2743-2.026.9448-1.9839 1.834.85.035 2.163-.725 2.25-1.6361-.038-.1168-.1535-.187-.266-.198zm113.4432.71c-.9207.1008.3315.7508.2088.0816-.061-.072-.1464-.0836-.2088-.0816zm-126.736.0537c-.9206.1008.3315.7514.2088.0822-.061-.072-.1463-.0842-.2087-.0822zm104.3823.1297c-.8029.4386.5146 1.4765.9669 1.7767.5436-.077 1.1528 1.2149 1.372.2403-.2491-1.0193-1.4193-1.7309-2.3389-2.017zm-126.736.0538c-.8028.4386.5147 1.4764.967 1.7766.5435-.077 1.1528 1.215 1.372.2403-.2491-1.0193-1.4193-1.7308-2.339-2.017zm137.6816.048c-.75.2978.5583.9102.2775.155-.051-.1007-.166-.165-.2775-.155zm-126.7364.0538c-.75.2978.5588.9101.278.155-.051-.1008-.1665-.165-.278-.155zm111.4118.2878c-1.0701.1804-1.3135 1.3047-.2987 1.8092.6744.7022 2.2607 1.9425 2.8375.4672.022-1.0104-1.92-1.5829-2.5388-2.2764zm-126.736.0538c-1.07.1804-1.314 1.3052-.2992 1.8097.6744.7022 2.2613 1.9424 2.838.4671.022-1.0104-1.92-1.5833-2.5388-2.2768zm134.8512 1.9776c-.936-.062-.407 1.5176.3163.7943.3708-.3171.1736-.8215-.3163-.7943zm-126.7359.0543c-.936-.062-.407 1.517.3163.7937.3708-.317.1736-.821-.3163-.7937zm125.9137.7545c-.7894.0259-1.3497 2.102-.2077 1.665.5105-.3486 1.1962-1.435.2078-1.665zm-126.7359.0537c-.7895.026-1.3497 2.1021-.2077 1.665.5105-.3486 1.1961-1.4349.2077-1.665zm127.9312.6925c-.7482.1835-1.0479 1.8016.0114 1.681.6202-.3314 1.1227-1.7114-.0114-1.681zm-126.7359.0537c-.7482.1835-1.0484 1.8022.0109 1.6816.6201-.3314 1.1231-1.712-.0109-1.6816zm141.609.1137c-.5178.0122-.9837.1261-1.2765.5426-.2969.8836.565.9731 1.0661 1.279.5094.8144 1.031-.7296 1.7322-.4775.6914-.07.4175-.8586.4744-1.3126-.5794.106-1.3307-.047-1.9963-.0315zm-126.736.0543c-.5177.0119-.9837.1256-1.2764.542-.297.8837.565.9731 1.066 1.279.5095.8144 1.031-.729 1.7323-.477.6914-.07.4175-.8585.4744-1.3125-.5795.106-1.3307-.047-1.9963-.0315zm132.7557.3777c-.85.5742.7945.6308.0419.0201l-.0429-.0098zm-126.736.0543c-.85.5742.7946.6303.042.0196l-.043-.0098zm107.7847.0589c-.9914.1757-1.0579 2.083.213 1.7523 1.3305.055.6533-1.654-.213-1.7523zm-126.736.0542c-.9913.1757-1.0578 2.0825.213 1.7519 1.3306.055.6534-1.6535-.213-1.7519zm127.6734 3.743c-.5684.4642 1.9296.8327.9214.2568-.2939-.1218-.6028-.2283-.9214-.2568zm-126.7359.0537c-.5684.4642 1.9296.8333.9214.2574-.294-.1219-.6028-.2289-.9214-.2574zm135.2067 1.4128c-1.1657 0-.9785 2.2133.2806 1.7483 1.2192-.2742.8765-1.7638-.2806-1.7483zm-126.736.0543c-1.1656 0-.9785 2.2127.2807 1.7477 1.2192-.2742.8765-1.7632-.2806-1.7477z"/>
  <flowRoot xml:space="preserve" style="font-style:normal;font-variant:normal;font-weight:400;font-stretch:normal;font-size:53.33333206px;line-height:25px;font-family:'Autumn Chant';-inkscape-font-specification:'Autumn Chant';letter-spacing:0;word-spacing:0;fill:#fff;fill-opacity:1;stroke:none" transform="matrix(.26458 0 0 .26458 2049.9216 -1111.8122)">
    <flowRegion>
      <path d="M-7025 2647.5198H-12.5v2737.5H-7025z"/>
    </flowRegion>
    <flowPara/>
  </flowRoot>
</svg>
