<?xml version="1.0" encoding="UTF-8" standalone="no"?>
<svg
   xmlns:dc="http://purl.org/dc/elements/1.1/"
   xmlns:cc="http://creativecommons.org/ns#"
   xmlns:rdf="http://www.w3.org/1999/02/22-rdf-syntax-ns#"
   xmlns:svg="http://www.w3.org/2000/svg"
   xmlns="http://www.w3.org/2000/svg"
   id="svg5661"
   version="1.1"
   viewBox="0 0 73.700195 40.511768"
   height="40.511768mm"
   width="73.700195mm">
  <defs
     id="defs5655" />
  <metadata
     id="metadata5658">
    <rdf:RDF>
      <cc:Work
         rdf:about="">
        <dc:format>image/svg+xml</dc:format>
        <dc:type
           rdf:resource="http://purl.org/dc/dcmitype/StillImage" />
        <dc:title></dc:title>
      </cc:Work>
    </rdf:RDF>
  </metadata>
  <g
     transform="translate(128.32034,-195.10126)"
     id="layer1">
    <text
       id="text6888"
       y="189.63069"
       x="-124.4716"
       style="font-style:normal;font-variant:normal;font-weight:normal;font-stretch:normal;font-size:11.28888893px;line-height:6.61458349px;font-family:Airstream;-inkscape-font-specification:Airstream;letter-spacing:0px;word-spacing:0px;fill:#143058;fill-opacity:1;stroke:none;stroke-width:0.26458332"
       xml:space="preserve"><tspan
         style="font-style:normal;font-variant:normal;font-weight:normal;font-stretch:normal;font-size:11.28888893px;line-height:9.60999966px;font-family:Airstream;-inkscape-font-specification:Airstream;fill:#143058;fill-opacity:1;stroke-width:0.26458332"
         y="195.02565"
         x="-124.4716"
         id="tspan6886" /><tspan
         id="tspan6890"
         style="font-style:normal;font-variant:normal;font-weight:normal;font-stretch:normal;font-size:11.28888893px;line-height:9.60999966px;font-family:Airstream;-inkscape-font-specification:Airstream;fill:#143058;fill-opacity:1;stroke-width:0.26458332"
         y="203.13794"
         x="-124.4716">End of the Road</tspan></text>
    <text
       transform="scale(0.94241185,1.0611072)"
       xml:space="preserve"
       style="font-style:normal;font-variant:normal;font-weight:normal;font-stretch:normal;font-size:12.29107857px;line-height:7.20180416px;font-family:Airstream;-inkscape-font-specification:Airstream;letter-spacing:0px;word-spacing:0px;fill:#ffffff;fill-opacity:1;stroke:none;stroke-width:0.28807217"
       x="-132.90422"
       y="176.74295"
       id="text7349"><tspan
         id="tspan7345"
         x="-132.90422"
         y="182.61687"
         style="font-style:normal;font-variant:normal;font-weight:normal;font-stretch:normal;font-size:12.29107857px;line-height:10.46314335px;font-family:Airstream;-inkscape-font-specification:Airstream;fill:#ffffff;fill-opacity:1;stroke-width:0.28807217" /><tspan
         x="-132.90422"
         y="191.44934"
         style="font-style:normal;font-variant:normal;font-weight:normal;font-stretch:normal;font-size:12.29107857px;line-height:10.46314335px;font-family:Airstream;-inkscape-font-specification:Airstream;fill:#ffffff;fill-opacity:1;stroke-width:0.28807217"
         id="tspan7347">End of the Road</tspan></text>
    <path
       id="text7317"
       d="m -109.94038,207.75007 c -6.10889,3.32946 -11.19404,8.54587 -16.42969,13.15235 -3.22119,2.00671 -2.26355,6.32433 1.48828,6.58203 2.91911,0.16311 5.90407,-1.44634 8.54297,-1.0293 -1.46986,3.73173 0.0173,11.27764 5.43164,8.5918 3.82262,-2.1352 -0.2707,-6.04331 1.24805,-8.89453 2.13338,0.61228 5.59989,-0.0443 5.08789,2.96289 1.31541,6.88628 9.726509,6.56114 14.73828,4.28906 3.970531,-1.22211 7.49808,-5.15927 10.10742,-7.12695 3.147999,2.94947 7.799321,-0.50861 11.13867,0.18359 -1.470081,3.73193 0.0218,11.27152 5.433599,8.58594 3.810911,-2.13359 -0.236899,-6.05446 1.24804,-8.89453 2.531872,0.62235 7.120422,1.85813 7.255862,-2.22266 0.411319,-3.52262 -3.609782,-4.43823 -6.31054,-3.91797 -0.22711,-3.7815 4.209579,-8.62477 1.142579,-11.76953 -4.85698,-1.93084 -8.040809,4.45838 -11.743351,6.4885 -2.098548,1.41157 -4.684519,4.11715 -6.309389,5.20681 0.768231,-8.74076 -10.899341,-14.11626 -17.494139,-8.72656 -4.010242,1.77596 -6.592341,6.65104 -8.542971,9.39453 -1.97787,-1.31619 -6.35379,0.77513 -4.24888,-3.06116 0.31897,-3.21886 4.49722,-10.02605 -1.78432,-9.79431 z m 20.812501,8.13086 c 2.346838,0.6061 5.02616,1.54186 4.523438,4.78125 -2.67399,3.75097 -8.158919,8.96268 -12.939458,6.82422 -1.036881,-4.4889 3.803189,-11.18571 8.41602,-11.60547 z m 21.710938,3.95899 c -1.736489,1.3726 0.695992,-1.53545 0,0 z m -47.753909,0.004 c -1.74055,1.36615 0.70283,-1.54208 0,0 z"
       style="font-style:normal;font-variant:normal;font-weight:normal;font-stretch:normal;font-size:32.68672943px;line-height:12.76825333px;font-family:'Segoe Script';-inkscape-font-specification:'Segoe Script';letter-spacing:0px;word-spacing:0px;fill:#ffffff;fill-opacity:1;stroke:none;stroke-width:0.51073015" />
    <text
       xml:space="preserve"
       style="font-style:normal;font-variant:normal;font-weight:normal;font-stretch:normal;font-size:32.68672943px;line-height:12.76825333px;font-family:'Segoe Script';-inkscape-font-specification:'Segoe Script';letter-spacing:0px;word-spacing:0px;fill:#143058;fill-opacity:1;stroke:none;stroke-width:0.51073015"
       x="-127.03194"
       y="232.4404"
       id="text6898"><tspan
         id="tspan6896"
         x="-127.03194"
         y="232.4404"
         style="font-style:normal;font-variant:normal;font-weight:normal;font-stretch:normal;font-size:32.68672943px;font-family:'Segoe Script';-inkscape-font-specification:'Segoe Script';fill:#143058;fill-opacity:1;stroke-width:0.51073015">404</tspan></text>
  </g>
</svg>
