<svg xmlns:dc="http://purl.org/dc/elements/1.1/" xmlns:cc="http://creativecommons.org/ns#" xmlns:rdf="http://www.w3.org/1999/02/22-rdf-syntax-ns#" xmlns:svg="http://www.w3.org/2000/svg" xmlns="http://www.w3.org/2000/svg" width="3780.1145" height="1142.9442" viewBox="0 0 1000.1553 302.404">
  <g transform="translate(136.4398 178.757)">
    <path d="M245.4215-178.757v57.9473h-18.502v4.9212h18.502V97.8653h23.4005v-213.7538h17.4118v-4.9212H268.822v-57.9473zm241.1279 27.848c-1.9596-.0585-4.7671 3.3218-1.272 3.7808 19.914 3.2817 40.7432 7.8567 57.3023 19.9582-3.8231 1.5666 4.2107 5.8313 3.1215 2.0526-2.1598-1.418 3.9288.9253 3.8064 2.4379-2.5165 2.0378 2.6216 4.8209 4.0766 2.7643 7.2383 4.3876 13.3538 10.67 18.9246 16.9833-.5615-.0292-1.044.117-1.456.3582-20.6286-17.255-44.936-25.8879-72.9255-25.8879-5.9997 0-11.8382.4035-17.5176 1.2148-.1941-.0877-.4188-.1315-.5088-.1476-.3153.1023-.5308.212-.6635.3304-14.8753 2.2797-28.6448 7.3605-41.3054 15.247.67-2.2845 5.553-2.5325 5.8848-5.4185-.4181-.4356-1.0978-.4122-1.6537-.4444-3.9666.171-10.1279 2.2642-7.7636 7.4791-.029.231-.0218.4547 0 .674-.9147.6183-1.8234 1.247-2.7261 1.8952-.1716-.5555-.5582-.9662-1.2603-.8946-2.6328-.4327-2.7192 1.9194-1.7457 3.128-.7466.5731-1.489 1.155-2.2272 1.748-.3852-1.2923-1.4352-2.6211-2.5284-2.6778-3.0533.117-2.085 3.7883-.3053 5.0333a132.3717 132.3717 0 0 0-7.8517 7.2725c-18.9545 18.7402-30.0408 40.8676-33.2756 66.376-.3534 1.1827-.4436 2.5693-.448 4.0128-.2515 2.7026-.413 5.444-.493 8.2203-.5613 1.4604-1.679 2.4028-3.8672 2.3771-2.0052 2.281 1.6767 3.2437 3.1744 2.3397-.011.9984.3127 2.3094.7126 3.7257.1164 3.5704.3825 7.084.794 10.5384-.4944.5321-1.2157.9064-2.2407 1.07-2.6608 1.6628 1.1067 4.0763 2.6321 1.8854 3.5498 24.49 14.5514 46.0098 33.0115 64.5553 7.8754 7.912 16.2899 14.46 25.2421 19.6455-1.3027.788 1.2501 1.825 1.3913.7821 1.8294 1.0248 3.6784 1.9978 5.5521 2.9098-1.741 1.8282-2.4841 5.2517-.63 6.7497 2.7725 1.6014 5.9177 1.054 7.656-1.5533 1.191.1915 2.0924-.3055 2.6498-1.0642 7.1022 2.6331 14.4988 4.521 22.191 5.6606.3203 1.8326 1.5336 3.3068 3.413 1.8972.155-.3216.3112-.8245.4384-1.3873 4.6509.532 9.4039.7996 14.265.7996 4.8241 0 9.528-.2412 14.1122-.7236.1572.6037.8885.8727 2.3172-.0292.2746-.0731.4943-.1886.6889-.3245 20.2584-2.6277 38.1198-10.0709 53.586-22.3273-3.0223 2.8125-6.2382 5.4355-9.6757 7.8193-6.5915 6.843-16.8876 9.5084-22.9875 16.5231 3.92 3.1667 10.9504-6.0095 15.0575-7.1684 10.5506-7.4612 19.9379-16.5353 28.117-26.6114 3.946-3.9953 7.711-8.352 11.2941-13.0766V97.866h23.9424V-11.4715c0-17.0982-3.1783-32.8267-9.5288-47.1907-16.3985-50.4952-65.1552-88.9332-118.1215-92.189-.1207-.0292-.2491-.0585-.3796-.0585zm-479.964.2047c-1.9596-.0585-4.7692 3.3218-1.274 3.7808 19.9142 3.2815 40.7452 7.8565 57.3044 19.958-3.8231 1.5668 4.2107 5.8335 3.1215 2.0546-2.1597-1.4194 3.9288.9254 3.8063 2.438-2.5165 2.0378 2.6217 4.8188 4.0767 2.7624 7.2383 4.3876 13.3537 10.6718 18.9245 16.9852-.6122-.0292-1.1358.1316-1.5694.4166-20.6969-17.434-45.1103-26.1533-73.2444-26.1533-21.8403 0-41.5564 5.376-59.1518 16.1221 1.3627-1.6466 5.1812-2.1445 5.4738-4.6891-.4188-.4357-1.098-.4152-1.6537-.4459-3.9666.171-10.1298 2.266-7.7656 7.481-.0099.0585-.0003.117 0 .1871a114.1479 114.1479 0 0 0-2.8943 1.9976c-.2182-.3406-.5585-.5628-1.082-.5087-2.3919-.3932-2.6827 1.5133-1.9864 2.7721a113.3788 113.3788 0 0 0-2.1352 1.6654c-.4712-1.1374-1.4107-2.189-2.3797-2.2395-2.8456.1024-2.2009 3.314-.6602 4.758a132.461 132.461 0 0 0-7.9319 7.3415c-22.1857 21.9348-33.6006 48.5067-34.2502 79.714-.65.9342-1.7023 1.4966-3.3994 1.4767-2.0053 2.2807 1.6765 3.2435 3.1744 2.3397-.01.535.0873 1.1592.2254 1.8382.0873 4.3369.4014 8.5868.9177 12.7542-.4668.3582-1.0806.6154-1.8787.7426-2.4782 1.5489.6225 3.7459 2.2917 2.2709 3.6405 24.2444 14.6085 45.5676 32.9194 63.9634 7.9935 8.0306 16.5442 14.6516 25.6472 19.8735-1.2071.7748 1.2186 1.7668 1.4135.7938 1.83 1.0145 3.6801 1.9802 5.5541 2.8823-1.737 1.8297-2.4762 5.2454-.6239 6.7418 2.7725 1.6013 5.9177 1.0554 7.6558-1.5514 1.21.1945 2.1223-.3216 2.6774-1.0993 7.0873 2.5907 14.4652 4.4438 22.138 5.5524.2807 1.8985 1.5099 3.4874 3.4386 2.0408.1701-.3538.346-.9137.477-1.5454 4.5003.497 9.0965.7514 13.7932.7514h.1309c.1817.044.3693.044.557-.01 4.726-.0293 9.3375-.2764 13.8323-.7632.01.7675.7286 1.2426 2.3446.2208.4668-.117.81-.3567 1.0369-.633 21.7678-2.9655 40.749-11.5308 56.9501-25.6814-4.0557 4.2259-8.4996 8.0954-13.3861 11.484-6.5916 6.843-16.8877 9.5085-22.9877 16.5232 3.9202 3.1667 10.9505-6.0116 15.0577-7.1704 11.9423-8.4455 22.4006-18.9494 31.295-30.6438a135.8349 135.8349 0 0 0 7.6814-9.2487v38.2667h23.9446V-11.4742c0-15.7869-2.7159-30.404-8.1296-43.86-15.3672-52.0268-65.035-91.9906-119.0883-95.3132-.1163-.0292-.2487-.0585-.3796-.0585zm471.8148 9.0009c-3.8348.0438-.7565 2.7035 1.1958.6797.1554-.6198-.8224-.5905-1.1958-.6797zm8.7128.0731c-4.273.1637.2042 2.4384 1.8807.9239.0683-.8186-1.349-.8567-1.8807-.9239zm-488.6768.1316c-3.8347.0438-.7563 2.7035 1.1954.6797.1556-.6198-.8231-.5906-1.1954-.6797zm8.7128.073c-4.273.1638.2036 2.4403 1.8808.9254.0727-.8186-1.3496-.858-1.8808-.9253zm463.2254.0439c-4.0299.0585-1.2812 2.9808 1.1996 1.2294 1.9465-.785-.4131-1.247-1.1996-1.2294zm24.4161.073c-4.3817 1.4093 5.1383 2.5677 1.2232.3772-.3672-.2134-.832-.3318-1.2232-.3771zm-504.3801.1316c-4.03.0585-1.2812 2.9809 1.1998 1.2294 1.9465-.785-.413-1.247-1.1998-1.2294zm24.416.0877c-4.3816 1.4093 5.1383 2.5654 1.2231.3757-.368-.2134-.8318-.3303-1.223-.3757zm447.522.4854c-3.954-.209-3.5002 3.2656.3308 1.73 1.1569-.2704.8603-1.8784-.3307-1.73zm-479.9638.2046c-3.9542-.209-3.5024 3.2677.3287 1.7322 1.1576-.2705.8624-1.8806-.3287-1.7322zm520.277.1024c-3.8287.7528 3.2504 3.6202 2.47.9107-.7256-.4853-1.6166-.905-2.47-.9107zm-479.9638.206c-3.8289.753 3.2503 3.6186 2.4697.9079-.7257-.4854-1.6165-.9034-2.4697-.9078zm431.073.8553c-3.156.1169-3.2607 3.5085.4482 1.8185.9172-.2324 1.5664-1.7696.223-1.795-.2374-.0292-.461-.0292-.6714-.0292zm-479.964.206c-3.1558.117-3.2607 3.5087.4479 1.8188.9176-.2325 1.5663-1.7696.2225-1.7952-.237-.0292-.461-.0292-.6719-.0292zm537.323.3816c-4.5028.8479 4.5802 4.0093 2.3348.6666-.6528-.5365-1.575-.5701-2.3347-.6666zm-479.9638.2061c-4.503.8479 4.58 4.0093 2.3345.6666-.653-.5365-1.575-.57-2.3345-.6666zm414.2482 1.4575c-2.7305-.0877-2.851 3.5353.241 1.8106.957-.3932 2.0617-1.775.3402-1.7419-.2049-.0438-.3992-.0585-.5812-.0731zm-479.964.2047c-2.7305-.0877-2.853 3.5373.2386 1.8128.9569-.3932 2.0638-1.777.3432-1.744-.205-.0439-.4-.0585-.5817-.0731zm449.7061.3932l-.0218.014c-23.4794 10.8738-42.1884 31.062-56.4883 52.507-5.6265 10.2254-12.3447 20.8961-13.9264 32.5629 2.4772 1.5386 4.019-3.529 4.4386-5.4364 2.8907-9.5588 7.355-18.5192 12.9205-26.6703 3.4356-5.828 7.443-11.5723 11.7638-16.702 2.6897-3.0115 5.0328-6.1894 8.1041-8.8495 9.0498-8.8942 19.3518-16.5224 30.6416-22.408 1.9958-2.684 5.1915-2.998 7.7695-4.3215-.7135-1.7942-3.6316 1.402-4.9299-.6593zm103.3634.014c-2.8017 1.686 5.5686 3.4617 2.8847.8946-.8869-.4955-1.8804-.7777-2.8847-.8946zm-583.3275.19l-.0291.0142c-23.4792 10.8737-42.1883 31.064-56.488 52.509-5.6266 10.2253-12.345 20.8962-13.9264 32.5628 2.4771 1.5384 4.019-3.529 4.4385-5.4363 2.8907-9.5589 7.353-18.5212 12.9186-26.6723 3.4356-5.8281 7.445-11.5723 11.7657-16.7022 2.6897-3.0114 5.0328-6.1873 8.1041-8.8474 9.0498-8.8942 19.3518-16.5244 30.6415-22.4098 1.9958-2.6843 5.1916-2.9964 7.7695-4.3196-.714-1.7943-3.6316 1.4019-4.9297-.6593zm103.3636.0142c-2.8018 1.6858 5.5685 3.4617 2.8846.8947-.8871-.4956-1.8804-.7777-2.8846-.8947zm399.588 2.023c-.1091-.0145-.2429-.0145-.4033 0-3.7022-.1315-3.1859 3.9047.1207 1.3918.6461-.3611 1.0504-1.2748.2817-1.3947zm-479.9641.2047c-.1163-.0146-.2429-.0146-.4028 0-3.7024-.1315-3.186 3.9046.1163 1.3917.6457-.361 1.05-1.2747.2821-1.3946zm568.4461.2866c-3.7519.7528 5.3773 4.7554 3.5364 1.3463-.9612-.8376-2.2771-1.3332-3.5364-1.3463zm-479.964.206c-3.7519.753 5.3773 4.7555 3.5363 1.3464-.9613-.8376-2.2771-1.3346-3.5364-1.3463zm383.3778 2.5875c-4.1718.1872-3.0084 3.9944.364 1.054.9145-.551.2042-1.1344-.364-1.054zm-479.7468.2047a.7785.7785 0 0 0-.2167 0c-4.1718.1871-3.0083 3.9945.3636 1.054.7998-.481.3577-.9911-.1469-1.0555zm584.6837.3538c-3.9442 1.0481 4.5042 4.7785 2.9708 1.2864-.715-.8713-2.0039-1.206-2.9708-1.2864zm-479.964.2046c-3.9443 1.0482 4.5043 4.7784 2.9707 1.285-.7155-.8713-2.0039-1.206-2.9707-1.285zm367.4377 2.5736c-2.8335.0438-3.9968 4.1018-.4403 1.8422.6945-.2704 1.8373-1.7323.4403-1.8422zm-479.964.2061c-2.8336.0438-3.9969 4.1-.4407 1.8404.6952-.2705 1.8374-1.7304.4407-1.8404zm258.1013.5c-11.2462 0-19.5909 3.8265-25.0326 11.4802v-5.4678h-23.3985v218.675h23.3985v-200.634c1.8138-9.1114 6.3499-15.1253 13.6054-18.041-2.1767 2.9157-3.2643 5.8315-3.2643 8.7472 0 9.476 4.8966 14.215 14.6915 14.215 9.795 0 14.6915-4.739 14.6915-14.215 0-9.8403-4.8964-14.7596-14.6915-14.7596zm149.859 0c-11.2462 0-19.591 3.8265-25.0326 11.4802v-5.4678h-23.3985v218.675h23.3985v-200.634c1.8138-9.1114 6.3499-15.1253 13.6053-18.041-2.1766 2.9157-3.2663 5.8315-3.2663 8.7472 0 9.476 4.8985 14.215 14.6936 14.215 9.795 0 14.6915-4.739 14.6915-14.215 0-9.8403-4.8965-14.7596-14.6915-14.7596zm107.3245.9443c-3.3562.6637 1.7007 2.946.5598.2602-.1367-.1593-.3928-.2368-.5598-.2602zm359.1456.1491c-19.59 0-33.919 8.9299-42.9885 26.7884v-21.3227h-23.4004V97.8698h23.4004V-83.0835c1.814-10.9336 6.7105-19.8636 14.6916-26.7882 7.9811-7.2892 17.4136-10.9334 28.2969-10.9334 6.1672 0 11.6095 4.3747 16.3257 13.1216 5.0789 8.3827 7.6169 18.4052 7.6169 30.068V97.8696h22.8563V-77.6156c0-12.756-4.7172-23.8733-14.1495-33.3492-9.0693-9.8403-19.9522-14.7597-32.6494-14.7597zm-839.1116.0586c-3.3562.6636 1.7027 2.946.5614.2602-.1309-.1594-.3941-.2369-.5614-.2603zm39.9258 2.1312c1.3816 0 2.7488.0439 4.1078.1023.3534.4883 1.4866.6842 1.4755.0877 23.359 1.4814 43.4463 12.3485 60.2595 32.6179 17.1679 20.6968 26.2076 45.478 27.1267 74.3367-2.7164 2.2979-.8682 7.6058-3.511 10.4086.6705 1.2236 2.2276 1.1827 3.4777.4693-1.0965 28.428-10.1257 52.869-27.0934 73.3242-.0872.1023-.1687.1988-.253.2982-.5352-.3888-1.1198-.6885-1.7477-.8245-2.5578.674.2327 5.0463-2.8808 4.4002-2.0056 2.0143-7.5797 1.8802-6.4856 5.8689.157.5745.4013 1.0584.6951 1.4627-.3127.2836-.6268.557-.941.8333-.6354-1.0438-1.6484-1.8893-2.7829-1.976-2.5828.4678-1.8604 3.0754-.4028 4.6675-2.5431 2.0526-5.1474 3.9302-7.8126 5.633-.1541-2.8125-4.451-2.8714-5.1646-5.7688-1.3947-2.1701-6.6932 2.9364-4.8515-.8566 1.732-1.5056 2.5258-4.5597-.208-5.3617-3.6277 2.3776-12.9897 3.2512-12.6347 8.7413 2.8664 4.8418 8.1834-3.798 11.4488.6827 2.0203 1.6833 3.546 4.1506 6.6715 1.9033.7257.3202 1.7206 1.4908 2.6909 1.9267-7.3913 4.4237-15.2415 7.5315-23.5492 9.3253-.1454-1.5677-1.0994-3.026-2.7945-3.1025-2.1498.0439-2.4773 2.1426-1.9121 3.9695-3.6182.5555-7.3193.8742-11.1043.9517-.2908-.943-.8115-1.72-1.6948-1.9327-1.303.011-1.9217.8493-2.1038 1.9308-14.4944-.3275-27.7895-4.2715-39.8847-11.8302.3446-.421.4028-1.0803.0145-2.0742-2.5219-1.5827-5.2434-2.874-8.108-3.665-5.3763-4.2871-10.4947-9.3513-15.351-15.2058C-65.712 45.9414-74.782 19.5183-74.782-11.4606c0-29.691 8.3375-55.1938 24.9994-76.5153 1.3641-.8669 2.6153-1.9785 3.6597-2.955-.1163-.4692-.157-.9049-.16-1.3186 1.7406-2.0297 3.5133-3.962 5.3193-5.7941.173-.0731.3446-.152.5162-.2222.5629 3.4606 5.7372 3.0527 5.0904-.7061 1.3568-2.9886 6.2061-4.9666 8.9613-3.8575-.9148 3.299 4.489 6.223 6.0511 3.2027-1.5883-2.7618-1.8049-6.3855 2.5795-5.7646 4.0096-.7821 2.1468 6.098 6.0708 4.6637 4.7568 1.4472.2952-6.1927 4.6576-5.985 3.3171.4635 11.5952-2.2523 12.674 1.569-2.7828 2.2943.9119 5.976 2.7358 2.965.9759-2.0808-2.3952-4.3695 1.5697-3.2637 2.8005-1.635 1.0238-5.5806-2.2213-4.644-7.1394-.4035-14.2963-.1024-21.4434-.1462.1164-2.9869 1.8094-5.4473 2.8279-8.0908 4.9835-1.9292 10.1448-3.321 15.4841-4.1778.4203.2997.9613.4678 1.5892.3538 1.5723.6666 8.3273 1.0043 6.9905-1.266 1.5065-.073 3.025-.117 4.558-.117zm480.3965 0c1.3 0 2.5884.0292 3.869.0877.4044.2923 1.0819.3786 1.2467.0585 23.5592 1.3653 43.8034 12.2462 60.729 32.6512 12.6737 15.2788 20.9127 32.7862 24.7313 52.513.0872 1.0261.3209 2.1277.5793 3.2126.9959 5.9518 1.5993 12.0992 1.8083 18.446-.1076-.0438-.2114-.0876-.3348-.1315-2.863 2.2508-.926 7.6583-3.6009 10.495.7548 1.3756 2.6266 1.1549 3.9258.1755-1.0084 28.6418-10.042 53.2502-27.109 73.8256-.1047.1316-.2134.2485-.319.3757-.6298-.5277-1.3405-.9385-2.1136-1.1052-2.5578.674.2304 5.0462-2.8827 4.4002-2.0057 2.0141-7.5797 1.882-6.4856 5.8708.2049.7484.5505 1.3463.9726 1.8049-.3333.3011-.6687.595-1.004.8888-.6015-1.2221-1.722-2.2776-2.9981-2.375-2.7565.4984-1.7575 3.4496-.1076 4.986-2.6908 2.1633-5.4512 4.1302-8.2783 5.9022.0625-.1023.1266-.2061.186-.3347.1062-3.0734-4.4451-3.0359-5.1803-6.0202-1.394-2.1701-6.6931 2.9345-4.8515-.8596 1.7318-1.5055 2.5257-4.5595-.2074-5.3616-3.6277 2.3775-12.9895 3.2513-12.6347 8.7414 2.8665 4.8418 8.1835-3.798 11.4487.6827 2.0205 1.6832 3.5461 4.1525 6.6716 1.905.859.3787 2.0893 1.9408 3.2154 2.0763-7.543 4.5281-15.5634 7.6847-24.0619 9.4708-.0436-1.6756-1.0043-3.3161-2.8063-3.3974-2.2531.0439-2.5072 2.348-1.826 4.2291-3.6252.541-7.3336.8406-11.1258.902-.2735-1.0394-.8106-1.9163-1.7594-2.1451-1.3814.0112-2.0014.9516-2.1371 2.1295-14.473-.405-27.7418-4.4356-39.8142-12.076.3115-.4224.352-1.07-.019-2.027-2.4393-1.531-5.0666-2.7853-7.828-3.5823-5.32-4.261-10.3868-9.2836-15.1965-15.082-18.139-21.8675-27.2089-48.2909-27.2089-79.2697 0-30.2239 8.6363-56.1085 25.9015-77.6595.845-.6608 1.6304-1.3683 2.323-2.0153-.0537-.2266-.0886-.443-.1148-.6564 1.9145-2.2553 3.867-4.3946 5.8613-6.4096.7906 3.1526 5.6485 2.678 5.0199-.975 1.3561-2.9888 6.2081-4.9686 8.9632-3.8596-.9141 3.299 4.4872 6.225 6.0493 3.2048-1.5883-2.7619-1.805-6.3857 2.5794-5.7647 4.0098-.782 2.147 6.098 6.0707 4.6636 4.757 1.4487.2945-6.1925 4.6579-5.9848 3.3171.4634 11.5971-2.2544 12.6758 1.567-2.7828 2.2942.9103 5.9778 2.734 2.9668.975-2.0808-2.3953-4.3712 1.5695-3.2656 2.8005-1.635 1.0235-5.5789-2.2213-4.642-7.1395-.4034-14.2963-.1023-21.4434-.1462.1062-2.8166 1.6057-5.1708 2.6322-7.6463 1.8679-.7426 3.7634-1.4005 5.6814-1.9916-2.2027 1.2674-3.2316 4.2947.1565 5.3183 4.9703 3.2028 5.9636-4.916 2.006-5.8903-.0858 0-.1694.01-.2546.0123a76.9192 76.9192 0 0 1 8.472-1.858c.351.1534.7547.2236 1.2075.1461 1.5186.6447 7.8689.9795 7.0982-1.0437 1.6128-.0877 3.2396-.1462 4.8829-.1462zm-82.928.073c-1.9613.0732-4.7337 3.526-1.276 2.2532.4115-.2134 2.9346-1.855 1.6556-2.2196-.1221-.0292-.2488-.0438-.3797-.0292zm-479.964.2047c-1.9612.0731-4.7338 3.5259-1.2753 2.2532.4115-.2135 2.9346-1.8548 1.6557-2.2197-.1164-.0292-.2487-.0438-.3796-.0292zm692.4211 2.4518V55.2287c0 13.1207 4.7173 24.42 14.1495 33.8959 9.4322 9.4758 20.6775 14.213 33.7375 14.213 13.06 0 24.124-4.7372 33.1935-14.213 9.4323-9.4759 14.1494-20.7752 14.1494-33.8959v-176.0339H698.942v176.034c0 11.6627-2.3567 21.8673-7.0727 30.6144-4.7162 8.3823-10.1585 12.5732-16.3258 12.5732-11.9717 0-22.1292-4.1909-30.4732-12.5732-8.3439-8.7471-12.5152-18.9517-12.5152-30.6145v-176.0339zm-630.8994.3611c-3.3863-.1316-6.393 4.5658-2.0079 5.8905 4.9703 3.2028 5.9655-4.916 2.008-5.8905zm486.7688.1506c-4.2837 0-2.4694 9.2734 1.769 5.3518.5806-1.6732.8244-5.3696-1.769-5.3518zm4.8455.2032c-3.7022.9443-2.1075 9.4459 1.7027 5.4087 1.009-1.7864.8945-5.3296-1.7027-5.4087zm-484.8096 0c-4.2836 0-2.4694 9.2712 1.7693 5.3498.5802-1.6734.8245-5.3678-1.7693-5.3498zm4.8438.2003c-3.7024.9458-2.1076 9.4458 1.7025 5.4088 1.0093-1.7862.8944-5.3296-1.7025-5.4088zm427.4935.2777c-3.7637 2.7796 3.6561 2.538 0 0zm-479.964.2061c-3.7636 2.7797 3.656 2.538 0 0zm452.5066.4693c-2.5786.3581-5.4705 5.0289-.9823 2.0624.5298-.3012 1.9758-1.5408.9823-2.0624zm-479.964.2061c-2.5786.3582-5.4705 5.029-.9817 2.0624.5294-.3012 1.9758-1.5408.9817-2.0624zm570.2113 1.4902c-1.8907 5.951 6.3763 4.2737 8.2216 7.782-1.0692 2.5414 3.4213 4.0695 3.3035.8684 2.5623-5.9178-2.6187-8.3418-7.7029-8.5526-1.2726-.073-2.5482-.0585-3.8222-.1023zm-479.964.2047c-1.8907 5.9506 6.3764 4.2754 8.2216 7.7837-1.069 2.5414 3.4212 4.0695 3.3036.8698 2.5623-5.9178-2.619-8.3438-7.7031-8.5546-1.2725-.073-2.548-.0585-3.8222-.1023zm504.7364.1315c-2.3833 1.5053 2.9576 1.9819.7104.1638-.197-.2135-.4934-.044-.7104-.1638zm-479.966.2061c-2.3833 1.5052 2.9596 1.9819.7126.1638-.1963-.2134-.496-.0438-.7126-.1638zm-62.4181 2.0272c1.5876 1.4734 1.1125 4.2926 3.556 4.7441-6.301 1.7041-12.7807 3.5332-19.087 5.8236 3.4147-2.9012 6.9356-5.4813 10.566-7.7326-.73 1.266.5178 3.568 2.6106 2.2118.893-.7455.288-3.2991-1.2274-2.959-.0727 0-.1309.0147-.1934.0293a79.1776 79.1776 0 0 1 3.7752-2.1175zm480.236.0877c1.2674 1.5256.9912 4.0335 3.284 4.4572-5.9179 1.6006-11.991 3.319-17.9325 5.4186 2.9919-2.4907 6.0677-4.7298 9.2237-6.7261-.154 1.2557 1.009 2.77 2.7984 1.6102.7645-.6388.429-2.5972-.634-2.9354 1.0779-.6359 2.1638-1.2455 3.2604-1.8245zm-60.1127.962c-2.0927.3464-3.5302 4.434-.3484 2.0113.5048-.4196 1.2012-1.7078.3484-2.0114zm-479.964.2046c-2.0927.3464-3.5303 4.436-.3475 2.0132.5046-.418 1.2012-1.7096.3475-2.0132zm602.1132 3.659c-2.4063.7616-6.64 5.0397-2.4737 6.5982 1.1637 1.089 7.234 4.2301 6.4856.3888-1.8245-1.663-2.2419-3.6166-2.276-5.8708-.3218-.668-1.0376-1.0671-1.736-1.1168zm-479.964.206c-2.4063.7617-6.64 5.038-2.4738 6.5965 1.1634 1.089 7.234 4.232 6.4858.3918-1.8247-1.663-2.242-3.6165-2.276-5.8708-.3215-.668-1.0384-1.0671-1.736-1.1168zm372.6297.5c-2.941 1.0453 1.3554 2.4738.3384.1316-.0785-.0585-.244-.1725-.3384-.1316zm-479.964.2062c-2.941 1.0452 1.354 2.4737.3374.1315-.0727-.0585-.2414-.171-.3374-.1315zm458.7888.7908c-2.1235-.2134-3.9953 4.9487-.9062 2.3004.514-.3275 2.494-2.119.9062-2.3004zm-479.966.2047c-2.1234-.2134-3.9932 4.9488-.9046 2.3003.5134-.3274 2.492-2.1188.9046-2.3003zm628.8092 2.3043c-6.2783.6374-3.9553 5.0692.407 7.0465 2.3113 3.3842 6.0466-.2017 2.4992-2.3103-2.5112-1.0262-2.0083-3.212-2.9062-4.7362zm-479.964.2061c-6.2783.6374-3.9553 5.0693.4072 7.0465 2.3113 3.3842 6.0466-.2017 2.4992-2.3101-2.5113-1.0262-2.0083-3.2123-2.9063-4.7364zm436.179 2.2669c-.1606 0-.3327.0123-.5147.0585-3.8788-.4181-3.697 8.513.9707 5.7705 1.937-.6725 1.951-5.7528-.456-5.8256zm-479.964.2047c-.16 0-.333.013-.5149.0585-3.8787-.4181-3.697 8.515.97 5.7725 1.9372-.6725 1.9511-5.755-.4566-5.8277zm369.0992.361c-1.351.1784-4.6626 4.2723-1.4325 3.0297.7679-.3494 2.708-2.373 1.4325-3.0297zm-479.966.2062c-1.351.1783-4.6605 4.2704-1.431 3.0277.7679-.3494 2.7061-2.3711 1.431-3.0277zm602.0995.3596c-2.2719 1.4384 2.6251 3.5177 1.3855.7367-.3219-.443-.844-.7133-1.3855-.7367zm-479.964.2046c-2.272 1.4385 2.625 3.5178 1.3859.7368-.3214-.443-.8435-.7134-1.386-.7368zm543.067 1.1724c1.7873.2456 3.717 3.7652 5.2704 5.4284.901.6652 1.2662 1.209 1.3151 1.687-.1875-.1871-.3688-.3771-.5579-.5643a128.8425 128.8425 0 0 0-6.7654-6.4233c.2428-.1024.4879-.1623.7377-.1316zm-479.964.2047c1.7872.2456 3.717 3.767 5.2704 5.4303 1.0485.7748 1.3714 1.383 1.3088 1.915-.3286-.3318-.6515-.668-.986-.9984-2.1118-2.1557-4.2661-4.2085-6.4641-6.1619.285-.1608.5758-.225.871-.1841zm411.7942.1315c-3.2516.2705-2.2842 6.0992.9647 3.9618 2.0893-.8742 1.0662-3.9618-.9647-3.9618zm-479.964.2047c-3.2516.2704-2.284 6.101.9642 3.9637 2.0894-.8742 1.066-3.9637-.9642-3.9637zm386.5658.8362c-5.0251.6403-.2728 8.5867 2.5697 4.3746.3333-1.6673-.8905-3.9587-2.5697-4.3746zm50.4899.014c-3.523.0731-5.9458 5.5166-1.6654 6.614.4157-2.851 2.9932-3.0263 4.6753-4.4945.594-1.418-1.2017-2.1174-2.2917-2.0584-.2433-.0438-.4834-.0585-.7183-.0585zm-530.454.1915c-5.025.6388-.2719 8.5888 2.5697 4.3765.333-1.6671-.89-3.9606-2.5696-4.3765zm50.49.0146c-3.523.0731-5.946 5.5146-1.6654 6.6121.416-2.8512 2.9931-3.0244 4.6754-4.4925.5934-1.418-1.2041-2.1175-2.2937-2.0585-.2428-.0438-.4813-.0584-.717-.0584zm510.4764 2.0843c-2.3443.7894.2008 4.5023 1.5793 1.852.4593-1.0964-.6428-1.8878-1.5793-1.852zm-479.966.206c-2.3442.791.2006 4.5026 1.5793 1.8521.4596-1.0964-.6428-1.8877-1.5793-1.852zm384.556 1.927c-3.082 1.4355 2.267 2.832 0 0zm-479.966.2046c-3.082 1.4355 2.267 2.8322 0 0zm626.2944.1023c-4.896.386 1.5692 6.7912 1.9336 1.3435-.083-.9765-1.1258-1.2864-1.9336-1.3435zm-479.9641.2047c-4.8959.386 1.5693 6.7912 1.9336 1.3434-.0872-.9765-1.1256-1.2864-1.9336-1.3434zm380.0411 2.4262c-2.9944.94.5487 5.3543 1.7125 2.2513.2044-1.0452-.6347-2.2783-1.7125-2.2513zm-479.9639.2047c-2.9945.94.5483 5.3562 1.7125 2.2531.205-1.0452-.6341-2.2802-1.7125-2.2531zm595.3965 1.3113c-3.172.5145 1.297 3.0941.6595.4151-.1367-.2397-.452-.3581-.6595-.4151zm-479.964.2046c-3.1721.5146 1.2972 3.094.6588.4152-.1309-.2398-.4523-.3582-.6588-.4152zm470.8305.9765c-4.362.3904.1893 6.5295 1.867 2.9866.768-1.4092-.406-2.9455-1.867-2.9866zm-479.964.2047c-4.362.3903.189 6.5293 1.867 2.9864.7679-1.4092-.4058-2.9453-1.867-2.9864zm466.7677 6.1931c-1.9403 1.611-3.104 4.4642-5.611 5.3184-.545 1.1577-3.8795 2.606-1.4111 3.7926 1.8338-1.8083 3.4416-3.5947 6.566-3.0297 3.3341-3.1918 6.901 3.895 2.2818 4.9074.2009 1.9956-5.5827 3-1.814 3.3424 1.834 2.096 2.4047 5.2549 4.5305 7.4554 1.842 5.0008 6.8684-2.9722 10.2392-.117 3.8121 1.4283 1.6702-4.1855-.1742-5.0784-4.5639-5.1964-8.3378-13.6276-14.6055-16.5863zm-479.964.2047c-1.9403 1.6108-3.104 4.466-5.6109 5.3202-.5453 1.1578-3.8815 2.606-1.4136 3.7926 1.834-1.8083 3.4435-3.5948 6.568-3.0298 3.3342-3.1916 6.901 3.893 2.282 4.9055.2007 1.9955-5.5829 3.002-1.8144 3.3443 1.8342 2.096 2.405 5.253 4.5307 7.4535 1.842 5.001 6.8683-2.9724 10.2392-.117 3.8121 1.4298 1.6703-4.1834-.1745-5.0763-4.5639-5.1965-8.3377-13.6297-14.6053-16.588zM394.572-80.637c-3.7917.342-.1506 6.0031 1.6733 2.487.885-1.1007-.592-2.4607-1.6733-2.487zm-479.964.2047c-3.7916.342-.1512 6.005 1.6733 2.489.8857-1.1007-.5919-2.4629-1.6733-2.489zm522.6962 2.3888c-2.0587 1.3595 1.1588 1.6383 0 0zm-479.964.2061c-2.0586 1.3595 1.159 1.6383 0 0zm426.4701 1.0423c-2.5131.788 1.5058 2.5474.7853.342-.205-.2163-.493-.323-.7853-.342zm-479.964.2061c-2.5132.788 1.5058 2.5473.7853.3421-.205-.2164-.493-.323-.7853-.342zm483.1226 4.1112c-3.199.2821-.2618 5.033-3.5873 4.8052-2.215 2.8353-1.8993 7.3594-5.2447 9.2564-2.7502 4.3213 7.3822 5.1587 5.4423.0877.9788-2.6026 3.8715-3.921 4.6638-6.488-1.3278-2.7846 4.7123-2.5748 1.7867-5.458-.8187-.921-1.9894-1.8238-3.0608-2.2099zm186.1974.117c-3.7783 2.2728 3.897 3.0581 0 0zm-666.1613.0876c-3.199.2822-.2618 5.0311-3.5873 4.8032-2.2152 2.8353-1.8994 7.3594-5.2449 9.2564-2.7502 4.3214 7.3823 5.1608 5.4424.1024.9802-2.6028 3.8715-3.9211 4.6638-6.4881-1.3278-2.7847 4.7123-2.5748 1.7867-5.458-.8188-.921-1.9895-1.8238-3.0607-2.2099zm186.1973.117c-3.7784 2.2729 3.897 3.0582 0 0zm477.7232 9.8325c-3.716.8815-.9937 5.1988-.912 7.6148 3.7119 2.2119 4.946 5.369 4.331 9.921-.2499 5.5848 9.7193 1.7694 5.6402-2.1864-1.043-3.482-5.0846-4.9372-4.1099-8.934.083-2.8133-2.6217-5.4045-4.9493-6.4154zm-479.964.2061c-3.7158.8815-.9961 5.1968-.9132 7.6127 3.7117 2.2121 4.9479 5.3693 4.333 9.9212-.2501 5.5848 9.7192 1.7713 5.6402-2.1845-1.0427-3.482-5.0848-4.937-4.1098-8.934.0872-2.813-2.622-5.4045-4.9494-6.4154zm465.3918 5.7391c-4.5062 1.3376 2.5031 7.9159 2.9943 3.362-.1893-1.5477-1.4245-3.2258-2.9943-3.362zm-182.7217.0439c-3.1202 1.3463 3.0683 1.2966 0 0zm-297.2422.1666c-4.5064 1.3375 2.5031 7.9159 2.9943 3.362-.1891-1.5476-1.4252-3.2258-2.9943-3.362zm-182.7218.0438c-3.12 1.3464 3.0684 1.2967 0 0zm688.9083 4.2369c-3.046 1.0598 1.8676 3.775.9314.5599-.1627-.3421-.5508-.5906-.9314-.56zm-479.966.2061c-3.046 1.0598 1.8697 3.7729.9336.5584-.1629-.342-.5527-.589-.9337-.5584zm251.052 2.6109c-3.4436.2631-3.2143 5.0609-6.0296 6.614-1.7209 2.8658-5.333 5.8934-3.3935 9.5357.3636 14.0259-2.6331 28.943 2.0372 42.4522 2.678 1.0905 3.0057-3.9158 2.192-5.682-.8218-9.8567-1.1708-19.7804-.3855-29.651 5.5826-.804 5.317-7.7476 5.194-12.0384-2.3045-.1828-4.8338-3.0563-2.3778-4.6421 2.9733.149 7.1985.0877 6.5698-4.1878-.0436-1.9165-2.3082-2.3713-3.8065-2.4006zm-479.964.2046c-3.4437.2617-3.2162 5.061-6.0316 6.614-1.7208 2.8657-5.331 5.8953-3.3917 9.5377.3636 14.0258-2.6328 28.943 2.0373 42.4522 2.678 1.0905 3.0058-3.918 2.192-5.684-.8217-9.8568-1.1707-19.7786-.3854-29.649 5.5825-.804 5.315-7.7475 5.192-12.0385-2.3045-.1827-4.8318-3.0582-2.376-4.6438 2.9733.1476 7.1985.0877 6.5698-4.186-.0436-1.9164-2.3082-2.3733-3.8065-2.4026zm687.094 1.4005c-.484 1.0379-.2004 7.038 1.7085 4.9565.4745-1.5115.099-4.5042-1.7085-4.9565zm-479.964.206c-.4843 1.038-.2007 7.0382 1.7085 4.9568.4741-1.5117.1018-4.5043-1.7085-4.9567zm276.3468 7.2118c-2.9996.117-3.9706 4.3619.0436 3.9716 2.4572 1.6995 6.8634-2.0837 2.7908-3.3287-.8755-.3815-1.9416-.5058-2.8123-.6432zm-479.9639.2047c-2.9997.117-3.9708 4.3639.0436 3.9734 2.457 1.6996 6.8634-2.0856 2.7907-3.3305-.8755-.38-1.9415-.5058-2.8122-.6432zm495.364 4.2763c-3.7614.266-1.1227 5.8652 1.3816 2.8528 1.0543-1.1578.2283-3.042-1.3816-2.8528zm-479.964.2061c-3.7613.2661-1.1228 5.8656 1.3815 2.853 1.0558-1.1578.2283-3.042-1.3816-2.853zm689.4405.7821c-.2097.01-.437.0439-.683.0877l-.7847-.0438-.2428-.0123c-4.0086-.6037-2.9478 6.051.7847 4.3177 3.2213.598 4.0736-4.4763.9257-4.3629zm-214.6099.1842c-2.5637.443.7504 2.1529.2153.0731.0436 0-.317-.0877-.2153-.073zm-265.354.0146c-.2094.0101-.4377.044-.6835.0878l-.7853-.0439-.2429-.0142c-4.0087-.6037-2.9478 6.0512.7854 4.3177 3.2213.598 4.0736-4.4742.9263-4.3608zm-214.6099.1857c-2.5639.443.749 2.1508.2153.073.0436 0-.317-.073-.2153-.073zm676.2872.7134c-1.7083 2.4765-3.625 5.4492-2.231 8.7433-.5614 2.6223 1.2536 8.6682 4.646 7.365 3.2304-4.569.6036-11.4984-1.908-15.9038-.1397-.117-.3234-.2061-.507-.2061zm-479.964.2061c-1.7084 2.4764-3.625 5.4493-2.2311 8.7433-.5614 2.6221 1.2536 8.67 4.646 7.367 3.2306-4.569.6021-11.5004-1.9099-15.9058-.1454-.117-.3214-.2046-.5046-.2046zm503.93 3.0946c-2.9994.7368.31 4.8001 1.2154 1.3156.2536-.82-.586-1.2703-1.2154-1.3156zm-479.964.2046c-2.9994.7368.3098 4.802 1.2158 1.3172.253-.8201-.586-1.2718-1.2158-1.3172zm263.8373 2.379c-.3912-.0146-.826.0293-1.2986.1945-4.179-.1462-1.9222 5.8342 1.4513 4.463 3.173-.4941 2.5836-4.5094-.1527-4.6577zm-479.9659.2062a3.4826 3.4826 0 0 0-1.2972.1944c-4.179-.1462-1.9222 5.8342 1.4528 4.463 3.173-.494 2.5817-4.5092-.1541-4.6577zm465.529 1.6909c-2.8495-.0439-4.691 2.6497-2.832 5.0961-.1454 2.1318 1.1852 8.343 4.1098 4.7639.2734-2.906 3.9339-7.4803.7373-9.461-.6282-.2704-1.3292-.4458-2.0156-.399zm-479.9641.2046c-2.8495-.0438-4.691 2.6518-2.8318 5.0982-.1454 2.1319 1.1852 8.343 4.1098 4.764.272-2.9061 3.9337-7.4823.7373-9.463-.6282-.2704-1.3292-.4458-2.0158-.399zm480.1207 12.546c-3.121.5817-4.3283 5.6527-1.6539 7.652.906 6.8358 1.0137 13.994 2.9572 20.5262 2.3517 2.3753 9.2442-1.4882 4.8143-3.9716-2.5385-2.177 1.8596-7.7014-1.5363-10.7919-2.4102-3.6137-1.1838-7.1742-1.4991-10.6544-.6326-1.2382-1.6425-2.849-3.0822-2.7604zm-479.9641.206c-3.121.5818-4.3282 5.6508-1.6538 7.6502.906 6.8359 1.0136 13.994 2.9572 20.5262 2.3518 2.3752 9.2441-1.4883 4.8144-3.9715-2.5386-2.177 1.8575-7.7015-1.5384-10.7921-2.4102-3.6137-1.1809-7.1742-1.497-10.6544-.6326-1.2382-1.6426-2.8471-3.0824-2.7584zm488.5221.9005c-2.2265.6959.7693 2.4599.7606.3319-.1745-.2398-.538-.2866-.7606-.3319zm-479.964.2062c-2.2264.6958.7678 2.4579.7591.3303-.1745-.2397-.5352-.285-.7591-.3303zm680.7924.4034c-3.6679-.421-2.138 7.1808-.1294 3.8773.766-.8859 1.9094-3.4348.1294-3.8773zm-196.3037.1754a1.6949 1.6949 0 0 0-.317 0c-3.6065-.1754-2.1068 5.5692.7577 2.963 1.2201-.7616 1.0514-2.85-.4407-2.9669zm-283.6623.0293c-3.6679-.421-2.1359 7.1788-.1309 3.8752.7664-.8859 1.9076-3.4327.131-3.8752zm-196.3017.1754a1.6633 1.6633 0 0 0-.317 0c-3.6065-.1754-2.1069 5.5672.7576 2.961 1.2202-.7616 1.0515-2.8481-.4406-2.965zM564.8449 8.4375c-7.8692 1.2718-7.5335 10.7342-11.7266 15.788-.8142 1.7242-4.743 6.6214-1.2388 7.2175 5.08-1.5542 6.4678-7.0205 7.6755-11.368 3.883-2.0198 4.1311-7.6635 6.2118-11.1065-.1178-.3933-.5428-.5629-.922-.5307zM84.881 8.6422c-7.8693 1.2718-7.5335 10.7342-11.7266 15.788-.8144 1.7242-4.743 6.6233-1.2391 7.2194 5.0801-1.554 6.468-7.0204 7.6756-11.3679 3.883-2.02 4.131-7.6634 6.2117-11.1067-.1163-.3932-.5424-.5643-.922-.5336zm284.0479 1.7577c-2.5715.7148.3592 2.9722.4057 4.4906 2.175 2.5137 9.0467-1.0174 4.9357-3.4328-2.2143.0439-3.7945.2748-5.3407-1.0584zm-479.964.2047c-2.5715.7148.3591 2.974.4057 4.4925 2.175 2.5138 9.0467-1.0174 4.9357-3.4328-2.2143.0438-3.7945.2719-5.3407-1.0599zm457.7515 1.4666c-1.1591 2.5146 2.0856 4.8382.9104.7558-.1455-.3874-.5861-.652-.9104-.7558zm-479.964.2047c-1.1591 2.5145 2.0855 4.8402.9103.7572-.1454-.3874-.586-.6534-.9104-.7572zm717.4125 2.7092c-3.0043 1.1403 2.8985 2.3459.5538.1316-.1514-.1593-.3838-.0439-.5538-.1316zm-479.964.2047c-3.0043 1.1402 2.8985 2.3477.5541.1316-.1512-.1594-.3839-.044-.554-.1316zM363.5 17.2739c-3.1305-.206-2.9138 5.2511.5381 3.4111 1.3932-.5891 1.2405-3.5067-.538-3.411zm-479.964.2047c-3.1305-.2047-2.9138 5.2511.538 3.4112 1.3933-.5891 1.2406-3.5067-.538-3.4112zm462.2487 1.8068c-4.5849 1.4546-.8609 8.1513-.33 11.0633C360.1984 77.4835 402.8384 114.356 451.548 121.6c4.9062-.266 13.6369 4.6634 16.854-.5994-.6124-6.5726-13.069-1.4829-17.2904-4.8248-30.4633-6.6574-59.5534-22.732-78.6949-47.7765-11.9954-14.3114-19.1473-31.7948-25.925-48.9406-.189-.152-.4712-.1828-.7068-.1754zm-479.9659.2062c-4.585 1.453-.858 8.1531-.3287 11.0653 14.7442 47.1348 57.3841 84.007 106.0936 91.2511 4.9062-.266 13.637 4.6614 16.854-.6023-.6122-6.5726-13.0689-1.4808-17.2904-4.823-30.4631-6.6573-59.5531-22.7338-78.695-47.7783-11.9952-14.3114-19.1471-31.7929-25.9248-48.9386-.189-.152-.4712-.1827-.7068-.1754zm511.2416 5.3418c-2.6583-.1023-5.3319 4.0017-1.5833 4.4572 2.5455.7456 6.0246-3.9562 2.1135-4.3785-.1745-.0439-.3534-.073-.5308-.073zm-479.964.2062c-2.6585-.1024-5.3318 4.0018-1.5833 4.4571 2.5453.7456 6.0246-3.9562 2.1136-4.3785-.1745-.0438-.3534-.073-.5308-.073zm471.7327 6.5078c-2.726.0731-2.229 4.8696.6268 3.5529 1.4754-.7353 2.3948-3.4462-.0436-3.4998a2.8532 2.8532 0 0 0-.5875-.0585zm-479.966.2047c-2.726.073-2.227 4.8697.6282 3.5527 1.4754-.7353 2.395-3.446-.0436-3.4997a2.8667 2.8667 0 0 0-.589-.0584zm487.5651.0877c-3.8863 2.4604 2.9816 2.338 0 0zm-479.964.2061c-3.8863 2.4604 2.9816 2.338 0 0zm680.718 1.742c-4.1776.4005-3.4293 7.6676.861 6.3368 2.7085-1.541 2.8863-6.2923-.861-6.3369zm-479.964.2046c-4.1776.399-3.4294 7.6677.861 6.3368 2.7085-1.541 2.8863-6.2922-.861-6.3368zm460.6225 5.4128c-2.726 2.164-4.2843 6.4457-5.6598 9.5926 2.4666 5.0156 7.0322-1.7437 7.8537-4.4807.924-1.8407-.064-4.7448-2.194-5.112zm-479.9641.2061c-2.726 2.1641-4.2842 6.4459-5.6597 9.5927 2.4665 5.0157 7.0322-1.7456 7.8536-4.4828.9235-1.8406-.0581-4.7427-2.194-5.1099zm296.207.7967c-3.803-.38-2.4253 6.3396.7679 3.0436 1.0732-.9283.858-3.1044-.7679-3.0436zm-479.9639.2061c-3.803-.38-2.4253 6.3376.7679 3.0416 1.0718-.9283.858-3.1025-.7679-3.0416zm490.0975.9078c-3.2965-.073-1.3466 5.3139 1.1417 2.7507 1.2477-1.0891.445-2.7964-1.1417-2.7507zm-479.9639.2062c-3.2967-.0731-1.3466 5.3136 1.1417 2.7506 1.2477-1.0891.445-2.7962-1.1417-2.7506zm483.8097 9.803c-2.6753 1.2148 1.6784 2.2169.3155.0877.0436-.0731-.4231 0-.3155-.0877zm-479.964.206c-2.6752 1.2149 1.6783 2.215.3155.0878.0436-.073-.4232 0-.3156-.0877zm485.0541.9751c-3.9142.4254-4.748 4.944-1.6673 7.314 4.125 3.1128-5.8015 5.2174-2.4835 8.5465 3.9344 1.5931 5.43-6.365 8.9437-2.5166 3.5353 1.7525 5.7767-3.9224 2.3993-5.859-2.7755-1.9722-4.1567-6.3413-7.1922-7.4849zm-479.9639.2062c-3.9143.4254-4.7482 4.944-1.6673 7.314 4.1248 3.113-5.8015 5.2176-2.4837 8.5467 3.9345 1.593 5.43-6.365 8.9438-2.5167 3.5352 1.7525 5.7767-3.9243 2.3994-5.861-2.7756-1.9723-4.157-6.3393-7.1922-7.483zm650.5617 1.9112c-3.0686 1.418 2.2352 2.8332 0 0zm-479.964.2061c-3.0686 1.418 2.2353 2.8335 0 0zm460.9983.462c-3.3671.2967-.2225 5.4329 1.4248 2.2826.3182-1.1344-.1713-2.2793-1.4248-2.2827zm-479.964.206c-3.367.2968-.2224 5.433 1.4253 2.2827.3185-1.1344-.1716-2.2791-1.4252-2.2826zm374.1328 1.0424c-3.6202.342-.0887 5.5243 1.5284 2.4162.623-1.0715-.4162-2.3608-1.5284-2.4162zm-479.966.206c-3.6202.3422-.0873 5.5244 1.5305 2.4164.6224-1.0716-.4188-2.3608-1.5305-2.4163zm469.5956 1.25c-3.4229.9955 3.2138 4.8132 2.1135 1.3244-.3968-.7909-1.3046-1.2601-2.1135-1.3244zm-479.964.206c-3.4228.9956 3.2137 4.8113 2.1136 1.323-.397-.7908-1.3045-1.2586-2.1136-1.323zM433.443 66.153c-2.7666 1.0744 1.6443 3.5148 1.5656 1.0247-.3105-.6052-1.0014-.9195-1.5656-1.0247zm-479.9641.206c-2.7664 1.0745 1.6445 3.513 1.5656 1.022-.3112-.6053-1.0005-.9167-1.5656-1.022zm454.3052 1.443c-1.9826.6636-3.0496 2.1048-4.6402.073-2.1984.5862-.268 2.5572 1.1645 2.4656.7482 3.8161 7.379 4.7669 6.928.1023-.6367-1.3844-1.895-2.5575-3.4523-2.6347zm-479.966.206c-1.9825.6637-3.0476 2.1048-4.6382.0731-2.1984.5862-.269 2.5552 1.1649 2.4635.749 3.816 7.3789 4.769 6.928.1024-.637-1.3844-1.8969-2.5574-3.4543-2.6346zm557.6706 1.3493a3.7912 3.7912 0 0 0-.6459.01c-1.4265 1.4823-1.8237 5.669-1.266 7.483 1.211.4255 7.601.7295 5.8612-1.4843-1.3274-2.074-.9496-5.7956-3.9493-6.0045zm-479.964.2047c-.1993-.0142-.4145-.0111-.6457.0099-1.4267 1.4823-1.8237 5.6689-1.2667 7.483 1.2114.4254 7.6011.7295 5.8613-1.4843-1.3277-2.0742-.9496-5.7975-3.9492-6.0066zm453.622.5146c-3.6617.4414-.1682 4.2335 1.9865 2.1921.793-1.2425-.904-2.3104-1.9864-2.1921zm-479.9659.2046c-3.6618.4415-.1658 4.2335 1.9884 2.1923.7926-1.2425-.906-2.3106-1.9884-2.1923zm569.5244.1959c-2.8581 1.0438-7.671 3.595-7.5112 6.9777 3.2187.1316 8.1896-2.7582 8.5191-6.2247-.144-.4444-.5814-.712-1.008-.7529zm-479.964.2047c-2.8581 1.0437-7.673 3.595-7.5132 6.9776 3.2188.1316 8.1916-2.7583 8.521-6.2246-.1454-.4444-.5817-.712-1.0078-.7529zM498.364 73.383c-3.4868.383 1.2553 2.8567.7906.3114-.231-.2734-.5543-.3187-.7906-.3114zM18.4 73.5877c-3.4868.383 1.255 2.8586.7911.3128-.2312-.2734-.554-.3201-.7911-.3128zm395.308.4926c-3.0407 1.6687 1.9487 5.6174 3.6616 6.7596 2.0587-.2924 4.3658 4.6222 5.196.9136-.9434-3.878-5.375-6.5853-8.8576-7.6738zm-479.9641.2047c-3.0406 1.6687 1.9488 5.6174 3.6618 6.7595 2.0585-.2923 4.3657 4.6223 5.1958.9137-.9438-3.8781-5.3749-6.5852-8.8576-7.6738zm521.4163.1827c-2.8404 1.133 2.1143 3.4627 1.0509.5906-.1932-.383-.6287-.6286-1.051-.5906zm-479.966.2047c-2.8404 1.1329 2.1164 3.4628 1.053.5905-.1935-.383-.6313-.6286-1.053-.5905zm421.9298 1.0949c-4.0527.6856-4.9744 4.964-1.1312 6.8834 2.554 2.6717 8.5617 7.3905 10.7461 1.7773.083-3.844-7.2715-6.022-9.615-8.6607zm-479.964.2046c-4.0528.6871-4.9764 4.966-1.133 6.8855 2.554 2.6717 8.5636 7.3902 10.748 1.7773.0873-3.8442-7.2715-6.0243-9.615-8.6628zm510.6974 7.5243c-3.5452-.2353-1.5415 5.7739 1.1977 3.022 1.4043-1.206.6575-3.1255-1.1977-3.022zm-479.964.2061c-3.5451-.2353-1.5415 5.7718 1.1983 3.02 1.4049-1.2061.6574-3.1235-1.1983-3.02zm476.8503 2.8705c-2.9899.1023-5.1116 7.9978-.7866 6.3348 1.9332-1.326 4.5299-5.4594.7866-6.3348zm-479.964.2047c-2.99.1023-5.1116 7.9977-.7867 6.3347 1.9333-1.3259 4.53-5.4592.7868-6.3347zm484.4907 2.6345c-2.8335.6988-3.9687 6.8546.0436 6.3957 2.3487-1.2615 4.2515-6.5113-.0436-6.3957zm-479.964.2047c-2.8335.6987-3.9706 6.8565.0436 6.3977 2.3487-1.2615 4.2534-6.5134-.0436-6.3977zm536.2898.4327c-1.9607.0438-3.7253.4795-4.8339 2.0644-1.1245 3.3618 2.1397 3.7023 4.0374 4.8662 1.9292 3.0984 3.9041-2.776 6.56-1.8168 2.6184-.266 1.5811-3.2666 1.7965-4.994-2.1943.4035-5.0393-.1783-7.56-.1169zm-479.964.2061c-1.9607.0439-3.7253.478-4.834 2.0625-1.124 3.3618 2.1398 3.7021 4.0375 4.866 1.929 3.0986 3.904-2.7738 6.56-1.8145 2.6184-.266 1.581-3.2668 1.7966-4.9941-2.1944.4034-5.0392-.1784-7.5601-.117zm502.7616 1.437c-3.2194 2.1846 3.0087 2.4002.1587.073l-.1625-.0438zm-479.964.2061c-3.2194 2.1847 3.0088 2.3983.1585.0731l-.1629-.0439zm408.1932.2237c-3.7545.668-4.0063 7.9248.8063 6.667 5.039.209 2.4745-6.293-.8063-6.667zm-479.964.2061c-3.7545.668-4.0063 7.923.8057 6.665 5.0392.209 2.4744-6.291-.8057-6.665zm483.5141 14.2404c-2.1526 1.7662 7.3076 3.1683 3.4894.978-1.113-.4634-2.2829-.8683-3.4894-.978zm-479.964.2047c-2.1527 1.7662 7.3076 3.1703 3.4894.9794-1.1126-.4634-2.2828-.8712-3.4894-.9794zm512.044 5.3753c-4.4147 0-3.706 8.4206 1.0626 6.6515 4.6173-1.0438 3.3195-6.7104-1.0627-6.6514zm-479.9642.2062c-4.4146 0-3.706 8.4185 1.0631 6.6492 4.6172-1.0438 3.3194-6.7083-1.063-6.6492z" style="opacity:1;fill:#fff;fill-opacity:1;stroke:none;stroke-width:2.00865269;stroke-miterlimit:4;stroke-dasharray:none;stroke-opacity:1"/>
    <flowRoot transform="matrix(.06716 0 0 .06712 384.5841 -178.6173)" style="font-style:normal;font-variant:normal;font-weight:400;font-stretch:normal;font-size:53.33333206px;line-height:25px;font-family:'Autumn Chant';-inkscape-font-specification:'Autumn Chant';letter-spacing:0;word-spacing:0;fill:#fff;fill-opacity:1;stroke:none" xml:space="preserve">
      <flowRegion style="fill:#fff">
        <path style="fill:#fff" d="M-7025 2647.5198H-12.5v2737.5H-7025z"/>
      </flowRegion>
      <flowPara/>
    </flowRoot>
    <path style="opacity:1;fill:#0775b2;fill-opacity:1;stroke:none;stroke-width:1.98388255;stroke-miterlimit:4;stroke-dasharray:none;stroke-opacity:1" d="M246.0506-177.862v57.2488H227.782v4.8617h18.2686V95.4258h23.1054v-211.1773h17.1922v-4.8617H269.156v-57.2489zm238.0875 27.5123c-1.935-.0585-4.707 3.2817-1.2561 3.7352 19.6631 3.2421 40.2295 7.762 56.5798 19.7176-3.7748 1.5478 4.1576 5.7611 3.0822 2.0278-2.1326-1.4019 3.8792.9151 3.7584 2.4086-2.4848 2.013 2.5885 4.7627 4.0252 2.731 7.147 4.3347 13.1854 10.5412 18.686 16.7785-.5544-.0292-1.0308.117-1.4377.3538-20.3684-17.047-44.3695-25.5758-72.006-25.5758-5.924 0-11.6889.3991-17.2966 1.2002-.1919-.0877-.4136-.117-.5025-.1462-.311.1023-.5241.209-.655.326-14.6877 2.2523-28.2836 7.2717-40.7846 15.0633.6616-2.257 5.483-2.502 5.8106-5.3533-.4129-.4298-1.0839-.4078-1.6328-.4385-3.9167.1695-10.0002 2.2367-7.6657 7.3889-.0305.228-.0218.4488 0 .6666a112.769 112.769 0 0 0-2.6918 1.8725c-.1695-.5482-.551-.9546-1.2445-.8845-2.5995-.4268-2.685 1.8962-1.7237 3.0904a120.5809 120.5809 0 0 0-2.199 1.7269c-.3803-1.2762-1.4172-2.5896-2.4966-2.6455-3.0148.117-2.0587 3.7427-.3014 4.9724a130.7838 130.7838 0 0 0-7.7527 7.185c-18.7155 18.5143-29.6621 40.375-32.856 65.576-.349 1.168-.4378 2.5382-.4421 3.9644-.2487 2.6699-.4072 5.3783-.4872 8.1211-.5541 1.4429-1.658 2.374-3.8184 2.3485-1.9799 2.2534 1.6554 3.2045 3.1344 2.3115-.0113.9852.3083 2.2816.7039 3.6807.1163 3.5275.3766 6.9988.7853 10.4115-.4886.5248-1.2012.896-2.2126 1.0569-2.627 1.6428 1.0937 4.027 2.599 1.8628 3.5051 24.1948 14.368 45.4551 32.5953 63.7772 7.7761 7.8165 16.0844 14.2855 24.9238 19.4086-1.2863.7777 1.2344 1.803 1.3739.7734 1.8063 1.0116 3.632 1.9736 5.4821 2.8747-1.7191 1.8061-2.4529 5.1884-.6223 6.6684 2.7376 1.582 5.8431 1.0408 7.5595-1.5346 1.176.19 2.0661-.3026 2.6164-1.051 7.0127 2.6013 14.316 4.4666 21.9112 5.5923.3163 1.8105 1.5143 3.267 3.37 1.8744.153-.3187.3074-.8158.4328-1.3713 4.5921.5263 9.2852.791 14.0851.791 4.7632 0 9.4077-.2384 13.9342-.715.1552.5965.8773.8625 2.288-.0291.271-.0731.488-.1871.6802-.3202 20.003-2.596 37.6391-9.9494 52.9103-22.058-2.9842 2.7785-6.1596 5.3699-9.5537 7.725-6.5084 6.7604-16.6746 9.3939-22.6977 16.324 3.8707 3.1284 10.8123-5.9372 14.8677-7.0821 10.4176-7.3713 19.6864-16.3359 27.7624-26.2905 3.8963-3.9474 7.6138-8.2514 11.1517-12.919v37.805h23.6406V-12.5917c0-16.892-3.1383-32.431-9.4087-46.6217-16.1917-49.8867-64.3337-87.8614-116.632-91.0779-.1193-.0292-.2461-.0585-.375-.0585zm-473.912.2018c-1.935-.0585-4.709 3.2817-1.258 3.7351 19.6632 3.242 40.2315 7.7619 56.582 19.7174-3.7751 1.548 4.1574 5.7632 3.082 2.03-2.1326-1.402 3.8792.915 3.7585 2.4085-2.4848 2.0133 2.5885 4.7608 4.0251 2.7291 7.147 4.3347 13.1854 10.5432 18.686 16.7806-.605-.0292-1.1212.1315-1.5498.4122-20.436-17.2238-44.5415-25.838-72.3208-25.838-21.5649 0-41.0323 5.311-58.406 15.9277 1.3453-1.6267 5.116-2.1185 5.4049-4.6326-.413-.4298-1.0834-.4093-1.6329-.4415-3.9165.1696-10.0021 2.2387-7.6676 7.3909-.0097.0585-.0003.1169 0 .1841a115.3693 115.3693 0 0 0-2.858 1.9735c-.2152-.3362-.5511-.5555-1.0688-.5028-2.3617-.3874-2.6489 1.4951-1.9613 2.7389-.7053.5394-1.4092 1.0861-2.1083 1.6451-.4654-1.1241-1.3932-2.1626-2.3497-2.2125-2.8097.1024-2.1733 3.2741-.6515 4.7007a130.7186 130.7186 0 0 0-7.832 7.253C-81.806-72.478-93.077-46.2265-93.7183-15.3953c-.6413.9225-1.6807 1.4785-3.3566 1.459-1.98 2.2532 1.6554 3.2045 3.1344 2.3114-.0097.5292.0873 1.1446.2225 1.8162.0873 4.2846.3956 8.4831.906 12.6004-.461.3538-1.0674.6081-1.8549.7339-2.4471 1.53.6137 3.7006 2.2627 2.2433 3.5947 23.9522 14.4243 45.0185 32.5044 63.1926 7.8927 7.9337 16.3356 14.475 25.3237 19.634-1.1925.766 1.2042 1.7454 1.3947.785 1.8068 1.0013 3.6335 1.9562 5.484 2.8475-1.7151 1.8077-2.445 5.1822-.6167 6.6604 2.7376 1.5822 5.843 1.0438 7.5594-1.5324 1.194.1915 2.0955-.3172 2.6435-1.0862 6.998 2.5594 14.283 4.3902 21.859 5.4855.2763 1.8755 1.4908 3.4452 3.3952 2.0161.1672-.3493.3417-.902.4711-1.5267 4.4438.4912 8.982.7426 13.6195.7426h.1163c.1803.044.365.044.5512-.01 4.6665-.0147 9.2199-.272 13.658-.7544.0096.7587.7198 1.228 2.3149.2178.461-.117.7998-.3523 1.0238-.6257 21.4934-2.9298 40.2352-11.3917 56.232-25.372-4.0047 4.1751-8.3924 7.998-13.2175 11.3458-6.5083 6.7606-16.6746 9.394-22.6976 16.324 3.8705 3.1285 10.8123-5.939 14.8677-7.084 11.7917-8.3436 22.1182-18.721 30.9005-30.2744a134.237 134.237 0 0 0 7.5845-9.1371v37.805H136.21V-12.597c0-15.5966-2.6816-30.0376-8.0271-43.3313-15.1734-51.3996-64.2149-90.8816-117.5866-94.1644-.1163-.0292-.2458-.0585-.3752-.0585zm465.8656 8.8923c-3.7865.0438-.747 2.671 1.1806.6724.1533-.6125-.8121-.5833-1.1806-.6724zm8.6029.073c-4.2192.1623.2016 2.4089 1.857.9122.0669-.8084-1.332-.8449-1.857-.9121zm-482.515.1316c-3.7863.0438-.7474 2.671 1.181.6725.1526-.6125-.8116-.5833-1.181-.6725zm8.603.0585c-4.2191.1623.202 2.4109 1.857.9151.0727-.8084-1.3321-.8478-1.857-.915zm457.3844.0438c-3.979.0585-1.265 2.945 1.1847 1.2148 1.9219-.7762-.408-1.2323-1.1847-1.2148zm24.1083.0731c-4.3265 1.3917 5.0735 2.5366 1.2077.3728-.3627-.2105-.8215-.3275-1.2077-.3728zm-498.0204.117c-3.979.0585-1.2652 2.945 1.1853 1.2148 1.922-.7763-.4087-1.2324-1.1853-1.2148zm24.1084.073c-4.3265 1.3917 5.0734 2.5346 1.207.3714-.362-.2105-.8216-.326-1.207-.3713zm441.879.4796c-3.9043-.2076-3.4562 3.2263.3265 1.7092 1.1423-.2661.8495-1.8559-.3265-1.7092zm-473.912.2017c-3.9041-.2061-3.458 3.2283.3244 1.7114 1.1416-.2675.8507-1.8579-.3243-1.7114zm513.7169.1023c-3.7805.744 3.2093 3.5767 2.4387.899-.7165-.4794-1.5962-.8931-2.4387-.899zm-473.912.2032c-3.7805.7441 3.2094 3.5748 2.4386.8976-.717-.4795-1.596-.8917-2.4385-.8976zm425.6376.845c-3.1162.117-3.2195 3.4663.4425 1.7967.9057-.2295 1.5467-1.7482.2202-1.7733-.2344-.0292-.4552-.0292-.6627-.0292zm-473.912.2046c-3.116.117-3.2196 3.4664.442 1.7968.906-.2295 1.5467-1.7482.2196-1.7734-.2341-.0292-.4551-.0292-.6631-.0292zm530.5478.3772c-4.446.8376 4.5224 3.9609 2.3053.6593-.6447-.5307-1.5551-.5628-2.3053-.6593zm-473.9119.2032c-4.4462.8376 4.5223 3.961 2.3052.6593-.6442-.5307-1.5552-.5628-2.3052-.6593zm409.0248 1.4399c-2.696-.0877-2.815 3.4928.2378 1.789.945-.3888 2.0357-1.7536.3362-1.721-.2023-.0438-.394-.0585-.5738-.0731zm-473.912.2017c-2.696-.0877-2.817 3.4947.2356 1.791.9453-.389 2.0378-1.7556.3389-1.7228-.2022-.0438-.3941-.0585-.5745-.0731zm444.0357.3889l-.0218.014c-23.1834 10.7427-41.6565 30.6877-55.776 51.874-5.5556 10.1022-12.1892 20.6443-13.7508 32.1702 2.446 1.5202 3.9683-3.4865 4.3827-5.3707 2.8542-9.4436 7.2621-18.2959 12.7576-26.3489 3.3923-5.7576 7.349-11.4328 11.6154-16.5007 2.6557-2.9752 4.9693-6.1146 8.002-8.7428 8.9355-8.787 19.1076-16.3232 30.2551-22.1377 1.9706-2.6518 5.126-2.962 7.6715-4.2695-.7046-1.7726-3.5858 1.3844-4.8677-.6505zm102.06.014c-2.7664 1.6655 5.4985 3.4198 2.8483.8844-.8756-.4897-1.8566-.769-2.8483-.8844zm-575.972.1886l-.0145.0139c-23.1834 10.7426-41.6567 30.6895-55.7761 51.876-5.5555 10.1022-12.1893 20.6443-13.7507 32.1702 2.446 1.52 3.9683-3.4863 4.3826-5.3706 2.8542-9.4437 7.2603-18.298 12.7556-26.3509 3.3923-5.7577 7.3511-11.4328 11.6173-16.5009 2.6558-2.975 4.9693-6.1125 8.002-8.7406 8.9356-8.787 19.1078-16.3252 30.255-22.1399 1.9708-2.6516 5.1263-2.96 7.6716-4.2674-.7039-1.7726-3.5858 1.3844-4.8676-.6505zm102.0601.0139c-2.7665 1.6654 5.4984 3.42 2.8483.8844-.8755-.4897-1.8566-.769-2.8483-.8844zm394.5495 1.9987c-.109-.0146-.2397-.0146-.3982 0-3.6555-.1315-3.1457 3.8576.1193 1.3756.638-.3566 1.0372-1.2586.2782-1.377zm-473.912.2018c-.1019-.0146-.24-.0146-.3985 0-3.6557-.1316-3.1458 3.8575.1163 1.3756.6384-.3567 1.037-1.2587.2778-1.377zm561.2783.2836c-3.7045.7426 5.3095 4.698 3.4919 1.3303-.9491-.8275-2.2485-1.3172-3.4919-1.3303zm-473.912.2032c-3.7046.7426 5.3095 4.698 3.4918 1.3303-.9496-.8275-2.2485-1.3172-3.4917-1.3303zm378.5438 2.5562c-4.1193.1842-2.9706 3.9462.3593 1.0408.903-.5438.2016-1.1212-.3593-1.0408zm-473.6976.2017a.7578.7578 0 0 0-.2138 0c-4.1193.1842-2.9705 3.9464.3592 1.0408.7897-.4765.3534-.978-.1454-1.0437zm577.3112.3494c-3.8945 1.035 4.4474 4.7209 2.9334 1.2703-.706-.861-1.9786-1.1914-2.9334-1.2703zm-473.912.2017c-3.8945 1.035 4.4476 4.7209 2.9333 1.2704-.7053-.861-1.9785-1.193-2.9333-1.2704zm362.8046 2.5426c-2.7978.0438-3.9464 4.0524-.4348 1.82.6858-.266 1.8142-1.7112.4348-1.82zm-473.912.2032c-2.7977.0439-3.9465 4.0505-.4348 1.818.685-.266 1.814-1.7094.4348-1.818zm254.847.4941c-11.1044 0-19.344 3.7803-24.717 11.3417v-5.4018h-23.1036v216.039h23.1036v-198.2155c1.791-9.0016 6.2697-14.943 13.4337-17.8236-2.1492 2.8806-3.2232 5.7613-3.2232 8.6419 0 9.3616 4.8348 14.0435 14.5064 14.0435 9.6715 0 14.5063-4.6819 14.5063-14.0435 0-9.7219-4.8348-14.5818-14.5063-14.5818zm147.9692 0c-11.1044 0-19.344 3.7803-24.717 11.3417v-5.4018H301.931v216.039h23.1035v-198.2155c1.791-9.0016 6.2697-14.943 13.4338-17.8236-2.1493 2.8806-3.2252 5.7613-3.2252 8.6419 0 9.3616 4.8367 14.0435 14.5083 14.0435 9.6715 0 14.5063-4.6819 14.5063-14.0435 0-9.7219-4.8348-14.5818-14.5063-14.5818zm105.9712.9327c-3.3139.6549 1.6793 2.9105.5527.2558-.1353-.1579-.3879-.234-.5527-.2558zm354.617.1476c-19.343 0-33.4912 8.8223-42.4464 26.4654v-21.0654h-23.1053v215.499h23.1053V-83.3782c1.791-10.802 6.6259-19.6243 14.5063-26.4654 7.8805-7.2012 17.194-10.8017 27.9401-10.8017 6.0895 0 11.4632 4.322 16.12 12.9636 5.0147 8.2815 7.5207 18.1832 7.5207 29.7053V95.3937h22.5681v-173.37c0-12.6024-4.6576-23.5855-13.971-32.9473-8.955-9.7218-19.7006-14.5817-32.2378-14.5817zm-828.5308.0585c-3.3139.655 1.6812 2.9106.554.2558-.1308-.1578-.3897-.2339-.554-.2558zm39.4223 2.1055c1.3641 0 2.714.0438 4.056.1023.349.4825 1.4678.6769 1.457.0877 23.0642 1.4635 42.8982 12.1996 59.4995 32.2247 16.9514 20.4473 25.877 44.9297 26.7847 73.4407-2.6823 2.2701-.8566 7.5142-3.4667 10.2831.6631 1.2075 2.1994 1.168 3.4338.4649-1.082 28.0853-9.9982 52.2316-26.7518 72.4403a34.3168 34.3168 0 0 0-.2486.2953c-.5294-.3844-1.1068-.6812-1.7257-.8142-2.5255.6651.2298 4.9853-2.8444 4.347-1.9803 1.9901-7.4843 1.8575-6.4039 5.7982.1556.5672.397 1.0452.6865 1.4458-.3083.2792-.6196.5496-.9293.823-.6268-1.0306-1.6277-1.8665-2.748-1.9522-2.5501.462-1.837 3.0385-.3984 4.6113-2.5111 2.028-5.0826 3.8828-7.714 5.5651-.1527-2.7785-4.395-2.8369-5.0996-5.6992-1.3772-2.1439-6.6087 2.901-4.7903-.8464 1.71-1.4872 2.4939-4.5045-.205-5.2968-3.582 2.3487-12.826 3.212-12.4755 8.6358 2.8303 4.7835 8.0803-3.7522 11.3043.674 1.9949 1.6628 3.5014 4.1006 6.5875 1.8803.717.3158 1.699 1.4727 2.657 1.9035-7.2982 4.3703-15.0494 7.4407-23.2522 9.2129-.1454-1.5489-1.0849-2.9895-2.7595-3.0651-2.1225.0439-2.4458 2.1168-1.8878 3.9217-3.5726.5497-7.227.864-10.9643.94-.2865-.9312-.8013-1.6993-1.6735-1.9095-1.2856.011-1.8974.8391-2.0771 1.9076-14.3118-.3231-27.4391-4.22-39.3819-11.6876.3403-.4167.3985-1.0672.0145-2.0493-2.49-1.5636-5.1774-2.8393-8.0058-3.6207-5.3085-4.2354-10.3623-9.2386-15.1575-15.0225-17.9102-21.604-26.8657-47.7087-26.8657-78.3142 0-29.333 8.2323-54.5285 24.6841-75.593 1.3467-.8567 2.5824-1.9547 3.6136-2.9193-.1018-.4634-.1541-.8947-.1585-1.304 1.7186-2.0054 3.469-3.9142 5.2522-5.7243.1701-.073.3403-.1506.5104-.2193.5556 3.4188 5.6648 3.016 5.026-.6973 1.3395-2.9525 6.128-4.9067 8.8484-3.8109-.9031 3.2592 4.4324 6.1478 5.975 3.164-1.5684-2.7285-1.7823-6.3085 2.5468-5.695 3.9592-.7719 2.1198 6.0244 5.9942 4.6074 4.697 1.4312.2908-6.118 4.599-5.9128 3.2754.4575 11.449-2.2253 12.5142 1.5501-2.7477 2.2666.9002 5.904 2.7013 2.9291.9628-2.0556-2.365-4.3167 1.5497-3.2242 2.7654-1.6152 1.0108-5.5135-2.1932-4.588-7.0494-.3977-14.1159-.1024-21.173-.1462.1164-2.9508 1.7868-5.3817 2.7924-7.9931 4.9207-1.906 10.0169-3.2811 15.2888-4.1276.416.2968.9482.462 1.5692.3494 1.5524.6593 8.2222.9926 6.9023-1.2513 1.4876-.0731 2.987-.117 4.5006-.117zm474.339 0c1.2835 0 2.5557.0292 3.8203.0877.3992.2895 1.0681.3742 1.2309.0585 23.2621 1.3478 43.251 12.0987 59.9634 32.2577 12.5137 15.0946 20.6488 32.391 24.4194 51.88.0858 1.0145.3167 2.102.572 3.174.9833 5.88 1.579 11.9532 1.7854 18.2236-.1061-.0439-.2087-.0877-.3305-.1316-2.827 2.2238-.9145 7.5661-3.5555 10.3688.7451 1.358 2.5934 1.1417 3.8762.1725-.9957 28.2965-9.9153 52.6082-26.7672 72.9356-.1032.1316-.2106.2456-.3148.3713-.622-.5204-1.3237-.9282-2.087-1.092-2.5256.6652.2273 4.9852-2.8463 4.3471-1.9805 1.9899-7.4843 1.8592-6.404 5.8.2023.7397.5437 1.3303.9604 1.7832-.329.2968-.6602.5877-.9912.8786-.594-1.2075-1.7003-2.2502-2.9604-2.3466-2.7217.4927-1.7353 3.4082-.1061 4.926-2.6569 2.137-5.3825 4.0805-8.174 5.8312.0626-.1024.1237-.2047.1836-.3304.1047-3.0364-4.3891-2.9993-5.115-5.9477-1.3764-2.144-6.6087 2.8992-4.7904-.8493 1.71-1.4873 2.494-4.5045-.2049-5.2969-3.5819 2.3488-12.8257 3.212-12.4754 8.6359 2.8304 4.7835 8.0803-3.7523 11.3044.674 1.995 1.6628 3.5014 4.1024 6.5875 1.882.8481.3743 2.0629 1.9174 3.1748 2.0513-7.448 4.4735-15.3672 7.592-23.7585 9.3566-.0436-1.6554-.9917-3.2762-2.771-3.3564-2.2246.0438-2.4755 2.3196-1.8028 4.178-3.5796.5336-7.2412.8304-10.9856.8918-.2699-1.0262-.8004-1.8933-1.7372-2.1193-1.3641.011-1.9762.94-2.1102 2.1038-14.2905-.4006-27.392-4.382-39.3121-11.9303.3077-.418.3477-1.057-.019-2.0027-2.4086-1.5123-5.0027-2.7517-7.7294-3.539-5.2528-4.2097-10.2558-9.1718-15.0048-14.9003-17.9103-21.604-26.8658-47.7087-26.8658-78.3143 0-29.8594 8.5274-55.432 25.575-76.7233.8343-.652 1.6098-1.3507 2.2937-1.991a6.1849 6.1849 0 0 1-.1135-.649c1.8905-2.2282 3.8183-4.3417 5.7875-6.3323.7805 3.1146 5.5773 2.6456 4.9565-.9634 1.339-2.9526 6.1299-4.9086 8.8503-3.813-.9027 3.2593 4.4305 6.15 5.973 3.1661-1.5683-2.7285-1.7822-6.3086 2.5468-5.6952 3.9593-.7718 2.12 6.0246 5.9942 4.6075 4.697 1.4311.291-6.1178 4.5991-5.9127 3.2753.4575 11.451-2.2273 12.516 1.548-2.7477 2.2666.8989 5.906 2.6995 2.9312.9629-2.0557-2.365-4.3186 1.5498-3.2263 2.7651-1.6152 1.0105-5.5116-2.1933-4.5861-7.0495-.3976-14.116-.1023-21.173-.1462.1047-2.7826 1.5854-5.1084 2.599-7.5541 1.8443-.7338 3.7159-1.3844 5.6097-1.9676-2.1749 1.2528-3.1908 4.243.1545 5.2543 4.9076 3.1642 5.8884-4.8569 1.9807-5.8195-.0858 0-.167.0101-.2513.012 2.7376-.766 5.5257-1.377 8.3652-1.8355.3467.1506.7451.2208 1.1923.1462 1.4995.6359 7.7697.9677 7.0088-1.0306a87.6441 87.6441 0 0 1 4.8213-.1316zm-81.8824.0731c-1.9365.0731-4.674 3.4833-1.2598 2.226.4064-.2105 2.8976-1.8326 1.6347-2.1931-.1207-.0292-.2456-.0439-.375-.0292zm-473.912.2017c-1.9365.0731-4.674 3.4833-1.2593 2.2262.4072-.2106 2.8976-1.8326 1.6349-2.1931-.1164-.0292-.2458-.0438-.3752-.0292zm683.6902 2.4223V53.2677c0 12.9625 4.6578 24.1256 13.9711 33.4873 9.3133 9.3616 20.4168 14.0417 33.312 14.0417 12.8954 0 23.82-4.68 32.775-14.0417 9.3134-9.3617 13.971-20.5248 13.971-33.4873v-173.9119h-23.6425V53.2677c0 11.5223-2.327 21.6038-6.9835 30.2455-4.6567 8.2813-10.0304 12.4217-16.12 12.4217-11.8206 0-21.8501-4.1404-30.0888-12.4217-8.2387-8.6417-12.3575-18.7232-12.3575-30.2455v-173.9119zm-622.9442.3567c-3.3437-.1315-6.3123 4.5108-1.9826 5.8196 4.9076 3.164 5.8903-4.8568 1.9826-5.8196zm480.631.1491c-4.2296 0-2.4383 9.1616 1.7468 5.2874.5732-1.6532.8138-5.305-1.7468-5.2874zm4.7844.2003c-3.6555.9341-2.0809 9.332 1.6812 5.3435.9962-1.7647.8833-5.2653-1.6812-5.3435zm-478.6966 0c-4.2295 0-2.438 9.1595 1.747 5.2853.573-1.653.8145-5.303-1.747-5.2853zm4.7828.1974c-3.6555.934-2.081 9.332 1.6811 5.3436.9962-1.7648.8828-5.2654-1.6811-5.3436zm422.1031.2733c-3.7162 2.746 3.61 2.5075 0 0zm-473.9119.2032c-3.7162 2.7462 3.61 2.5075 0 0zm446.8008.4649c-2.5462.3537-5.4016 4.9682-.97 2.0375.523-.2968 1.9509-1.5222.97-2.0375zm-473.9121.2032c-2.546.3537-5.4014 4.9684-.97 2.0376.5235-.2967 1.9508-1.5223.97-2.0376zm563.0214 1.4723c-1.8668 5.8792 6.296 4.2222 8.118 7.6882-1.0557 2.5107 3.378 4.0204 3.2618.8581 2.53-5.8465-2.5857-8.2413-7.6058-8.4496-1.2565-.0731-2.5161-.0585-3.774-.1023zm-473.912.2018c-1.8667 5.879 6.296 4.224 8.118 7.69-1.0558 2.5109 3.378 4.0204 3.2618.8581 2.53-5.8465-2.5857-8.2432-7.6058-8.4515-1.2565-.0731-2.516-.0585-3.774-.1023zm498.372.1315c-2.3532 1.487 2.9204 1.9579.7014.1609-.1944-.2105-.4871-.0438-.7014-.1609zm-473.914.2033c-2.3531 1.487 2.9225 1.9578.704.1607-.195-.2105-.4887-.0438-.704-.1607zm-61.631 2.0027c1.5678 1.456 1.098 4.2408 3.5111 4.6868-6.2214 1.6836-12.6196 3.4908-18.8464 5.7536 3.3718-2.8663 6.8483-5.4153 10.433-7.6395-.7214 1.2499.5104 3.525 2.5777 2.1852.8813-.7368.285-3.2594-1.2115-2.9233-.0727 0-.1308.0146-.1905.0292a79.2668 79.2668 0 0 1 3.7275-2.092zm474.1806.0877c1.2514 1.5072.9787 3.9847 3.2426 4.4034-5.8433 1.5812-11.8399 3.2789-17.7064 5.3533 2.9541-2.4608 5.9912-4.6728 9.1073-6.645-.1518 1.2396.9964 2.7364 2.7632 1.5908.755-.6301.4235-2.566-.626-2.9a79.0222 79.0222 0 0 1 3.2193-1.8025zm-59.3547.9502c-2.0663.342-3.4858 4.3807-.344 1.987.4983-.4136 1.186-1.687.344-1.987zm-473.9119.2017c-2.0664.3421-3.4858 4.3827-.3446 1.989.4988-.4137 1.1867-1.689.3446-1.989zm594.5208 3.6149c-2.376.7528-6.5562 4.979-2.4424 6.5187 1.149 1.0759 7.1427 4.179 6.4038.3844-1.8016-1.643-2.2137-3.5729-2.2473-5.8-.318-.6608-1.0244-1.054-1.7141-1.1037zm-473.912.2032c-2.376.7528-6.5561 4.9771-2.4425 6.5167 1.1489 1.076 7.1429 4.181 6.404.386-1.8018-1.643-2.2138-3.573-2.2474-5.8-.3185-.6608-1.0238-1.054-1.714-1.1037zm367.9312.4926c-2.904 1.0335 1.3383 2.444.3343.1316-.0785-.0585-.2408-.1696-.3343-.1316zm-473.912.2047c-2.904 1.0335 1.3365 2.4439.333.1316-.0727-.0585-.2385-.1696-.333-.1316zm453.0037.7806c-2.0966-.2105-3.945 4.889-.8946 2.2726.5075-.323 2.4626-2.0934.8946-2.2726zm-473.914.2017c-2.0966-.2105-3.9428 4.8892-.8929 2.2726.5076-.323 2.4607-2.0932.893-2.2726zm620.8805 2.2766c-6.1992.63-3.9055 5.0081.402 6.9616 2.2821 3.3434 5.9703-.1988 2.4676-2.2824-2.4796-1.0145-1.983-3.1735-2.8696-4.6792zm-473.9121.2032c-6.199.63-3.9054 5.0081.4014 6.9616 2.282 3.3434 5.9701-.1988 2.4675-2.2824-2.4796-1.0145-1.983-3.1734-2.8696-4.6792zm430.679 2.2397c-.1584 0-.3283.012-.508.0585-3.8299-.4137-3.6504 8.4103.9583 5.7009 1.9127-.6637 1.9264-5.6835-.4502-5.7553zm-473.9118.2017c-.1586 0-.3287.0129-.5076.0585-3.8299-.4137-3.6503 8.4122.9584 5.7028 1.9127-.6637 1.9265-5.6854-.4508-5.7573zm364.4452.3582c-1.3336.1768-4.6039 4.2209-1.415 2.9932.759-.3464 2.6738-2.3445 1.415-2.9932zm-473.9141.2046c-1.3336.1769-4.6018 4.2189-1.4121 2.9912.7591-.3464 2.672-2.3426 1.412-2.9912zm594.5074.3552c-2.2432 1.421 2.592 3.4754 1.368.728-.3178-.4385-.8333-.7046-1.368-.728zm-473.912.2018c-2.2433 1.4209 2.592 3.4752 1.3686.728-.3185-.4386-.8333-.7046-1.3685-.728zm536.2194 1.1578c1.7647.2426 3.67 3.7198 5.204 5.3629.8896.6578 1.2502 1.1943 1.2984 1.6666-.185-.1856-.3641-.3727-.5507-.557a127.1749 127.1749 0 0 0-6.6801-6.3458c.2396-.1023.4818-.1608.7284-.1316zm-473.912.2017c1.7647.2427 3.6701 3.7217 5.2038 5.365 1.0355.7645 1.354 1.3668 1.2929 1.8919-.3258-.329-.6443-.6608-.9744-.9868-2.0851-2.1296-4.2123-4.1577-6.3827-6.0875.2821-.1594.5686-.2222.8595-.1828zm406.6017.1316c-3.2106.2675-2.2553 6.0255.9527 3.914 2.063-.8626 1.0528-3.914-.9527-3.914zm-473.912.2017c-3.2106.266-2.2552 6.0276.9525 3.9158 2.063-.8624 1.0529-3.9158-.9526-3.9158zm381.6915.826c-4.9617.6315-.2692 8.4832 2.5372 4.3219.3292-1.6472-.879-3.911-2.5372-4.322zm49.8533.014c-3.4786.073-5.8709 5.4499-1.6445 6.5341.4106-2.8167 2.9555-2.9897 4.6164-4.4402.5864-1.4004-1.1865-2.092-2.2628-2.0337-.24-.0439-.4772-.0585-.709-.0585zm-523.7653.1885c-4.9617.6316-.269 8.4852 2.5372 4.3238.3286-1.6471-.8799-3.913-2.5372-4.3238zm49.8533.0147c-3.4786.073-5.871 5.448-1.6445 6.5324.4101-2.817 2.9554-2.988 4.6165-4.4385.5861-1.4004-1.1881-2.092-2.2647-2.0337-.24-.0439-.4756-.0585-.7068-.0585zm504.0396 2.0588c-2.3147.7807.1982 4.4483 1.5594 1.8298.4536-1.0817-.6346-1.865-1.5594-1.8298zm-473.914.2047c-2.3146.7806.1978 4.4481 1.5595 1.8296.4537-1.0817-.634-1.865-1.5594-1.8296zm379.707 1.9036c-3.043 1.4195 2.2385 2.798 0 0zm-473.914.2017c-3.0429 1.4195 2.2385 2.7982 0 0zm618.3974.1024c-4.8343.3815 1.5494 6.7093 1.9092 1.3259-.0829-.9649-1.1115-1.2718-1.9092-1.326zm-473.912.2017c-4.8341.3815 1.5495 6.7093 1.9091 1.3259-.0872-.9648-1.111-1.2718-1.9092-1.3259zm375.249 2.397c-2.9567.9283.5418 5.2897 1.6908 2.224.202-1.0336-.6265-2.2508-1.6908-2.224zm-473.912.2017c-2.9567.9283.5425 5.2918 1.691 2.2261.202-1.0335-.6269-2.2527-1.691-2.226zm587.889 1.2952c-3.132.5088 1.2805 3.0569.6513.4093-.1353-.2368-.4464-.3537-.6513-.4093zm-473.912.2018c-3.132.5087 1.2813 3.0567.6515.4093-.1308-.2368-.4464-.3538-.6515-.4093zm464.8937.9648c-4.307.386.187 6.4507 1.8435 2.9504.7583-1.3916-.401-2.91-1.8435-2.9504zm-473.912.2017c-4.307.386.1876 6.4507 1.8434 2.9505.7577-1.3917-.4013-2.91-1.8434-2.9505zm460.882 6.1186c-1.9157 1.5915-3.0647 4.4104-5.5402 5.2542-.538 1.1431-3.8305 2.5746-1.3932 3.747 1.8107-1.7867 3.3983-3.5515 6.4832-2.9933 3.2921-3.1534 6.814 3.848 2.2531 4.8482.1982 1.9714-5.5123 2.9639-1.7913 3.3022 1.811 2.0707 2.3745 5.1914 4.4735 7.3655 1.8188 4.9406 6.7818-2.9364 10.1101-.117 3.764 1.4122 1.6491-4.135-.172-5.0173-4.5063-5.1337-8.2327-13.4633-14.4214-16.3862zm-473.912.2017c-1.9156 1.5914-3.0646 4.4123-5.5401 5.256-.5381 1.1447-3.8325 2.5747-1.3947 3.7471 1.8107-1.7865 3.4001-3.5514 6.4851-2.9933 3.2921-3.1532 6.8141 3.8461 2.2532 4.8463.1977 1.9715-5.5124 2.9658-1.7913 3.3041 1.8109 2.0707 2.3746 5.1896 4.4734 7.3636 1.8189 4.9406 6.7818-2.9365 10.1102-.117 3.764 1.4122 1.6492-4.133-.1716-5.015-4.5062-5.134-8.2326-13.4655-14.4212-16.3883zm332.4876 1.853c-3.744.3377-.1483 5.9306 1.6521 2.4571.8739-1.0876-.5845-2.4312-1.652-2.457zm-473.912.2018c-3.7438.3377-.1483 5.9326 1.6522 2.459.874-1.0862-.5846-2.4331-1.6522-2.459zm516.1053 2.36c-2.0327 1.3434 1.1442 1.6185 0 0zm-473.912.2046c-2.0327 1.3435 1.1445 1.6186 0 0zm421.0927 1.0292c-2.4815.7777 1.4867 2.5166.775.3377-.202-.215-.487-.3187-.775-.3377zm-473.912.2032c-2.4815.7777 1.4867 2.5166.775.3377-.202-.215-.4871-.3187-.775-.3377zm477.0307 4.0616c-3.1587.2777-.2589 4.9723-3.542 4.7473-2.1872 2.801-1.8754 7.2707-5.1787 9.145-2.7156 4.269 7.2892 5.0963 5.3738.0876.967-2.5714 3.8226-3.8739 4.6048-6.4099-1.3103-2.751 4.653-2.5436 1.7644-5.3922-.8086-.9092-1.9645-1.8017-3.0223-2.1832zm183.8496.117c-3.7307 2.2455 3.8479 3.0213 0 0zm-657.7615.0876c-3.1587.2778-.2589 4.9705-3.542 4.7453-2.1873 2.801-1.8755 7.2708-5.1788 9.145-2.7156 4.2692 7.2892 5.0984 5.3738.1022.967-2.5713 3.8227-3.8738 4.6048-6.4099-1.3103-2.7512 4.653-2.5437 1.7644-5.3921-.8086-.9093-1.9643-1.8018-3.0222-2.1833zm183.8495.117c-3.7308 2.2455 3.848 3.0213 0 0zm471.6995 9.7141c-3.6691.8698-.9812 5.136-.9005 7.5228 3.665 2.1855 4.8836 5.3045 4.2763 9.8016-.2467 5.5174 9.5967 1.748 5.5691-2.16-1.03-3.44-5.0205-4.8778-4.058-8.8264.0829-2.7793-2.5887-5.3394-4.887-6.338zm-473.912.2032c-3.669.8713-.9831 5.1343-.9017 7.521 3.665 2.1855 4.8855 5.3045 4.2784 9.8015-.2473 5.5176 9.5967 1.75 5.569-2.158-1.0296-3.44-5.0206-4.8776-4.058-8.8264.0872-2.7792-2.5888-5.3392-4.887-6.3381zm459.5235 5.67c-4.4494 1.3214 2.4716 7.8205 2.9565 3.3215-.187-1.529-1.4065-3.187-2.9565-3.3216zm-180.4176.0438c-3.081 1.3303 3.0295 1.282 0 0zm-293.4944.1652c-4.4494 1.3215 2.4716 7.8204 2.9566 3.3214-.1876-1.529-1.4063-3.187-2.9566-3.3214zm-180.4177.0438c-3.0807 1.3303 3.0298 1.282 0 0zm680.2216 4.1859c-3.0076 1.0481 1.8441 3.7293.9197.554-.1608-.3377-.544-.5832-.9197-.554zm-473.914.2046c-3.0075 1.0467 1.8462 3.7275.922.5512-.1615-.3377-.5454-.5819-.922-.5512zm247.8865 2.5795c-3.4003.2587-3.1739 5-5.9536 6.5343-1.6992 2.8311-5.2657 5.8224-3.3507 9.4207.3592 13.8567-2.5998 28.5942 2.0116 41.9404 2.644 1.0774 2.9678-3.8686 2.1643-5.6135-.8115-9.738-1.1562-19.542-.381-29.2935 5.5121-.7938 5.25-7.6542 5.1285-11.8933-2.2754-.1798-4.773-3.0194-2.3478-4.5861 2.9358.1462 7.1075.0877 6.4869-4.1373-.0436-1.8934-2.279-2.3428-3.7585-2.3717zm-473.912.2017c-3.4002.2602-3.1756 5-5.9555 6.5343-1.6992 2.8312-5.2638 5.8245-3.3488 9.4228.3592 13.8567-2.5998 28.5942 2.0116 41.9405 2.644 1.0774 2.9677-3.8706 2.1642-5.6155-.8114-9.738-1.1561-19.5402-.381-29.2916 5.5122-.7938 5.2481-7.6543 5.1267-11.8935-2.2754-.1798-4.771-3.0212-2.346-4.5878 2.9358.1462 7.1076.0877 6.487-4.1354-.0437-1.8934-2.2792-2.3448-3.7585-2.3738zm678.4302 1.383c-.4779 1.0247-.1978 6.953 1.687 4.8967.4686-1.4935.0974-4.45-1.687-4.8968zm-473.912.2031c-.4784 1.0248-.1977 6.9533 1.687 4.8969.4683-1.4933.1018-4.4499-1.687-4.8969zm272.8624 7.1249c-2.962.117-3.9206 4.3092.0436 3.9236 2.4262 1.679 6.7769-2.0586 2.7556-3.2884-.8638-.3757-1.917-.5-2.7768-.636zm-473.912.2017c-2.962.117-3.9206 4.3115.0436 3.9257 2.426 1.679 6.7768-2.0605 2.7556-3.2903-.8639-.3757-1.9172-.4985-2.7769-.636zm489.1179 4.225c-3.7141.263-1.1096 5.7945 1.3641 2.8184 1.0413-1.1432.2254-3.0053-1.3641-2.8185zm-473.912.2031c-3.714.2632-1.1096 5.7948 1.3641 2.8186 1.0413-1.1432.2254-3.0053-1.3641-2.8186zm680.747.7733c-.2072.0098-.4314.0439-.6743.0877l-.7748-.0438-.2397-.0122c-3.958-.5964-2.9106 5.9781.7748 4.2657 3.1807.5906 4.0223-4.4224.914-4.3102zm-211.9038.1828c-2.5315.4385.7403 2.127.2123.073.0436 0-.3126-.073-.2123-.073zm-262.008.0146c-.208.0098-.432.0438-.6749.0877l-.7751-.0439-.24-.0139c-3.9581-.5964-2.9107 5.9781.7752 4.2656 3.1806.5906 4.0222-4.4204.9147-4.3082zm-211.9039.1827c-2.5316.4386.7403 2.1251.2124.0731.0436 0-.3141-.073-.2124-.073zm667.7597.7046c-1.6868 2.4466-3.5793 5.3836-2.2028 8.638-.5543 2.5905 1.2377 8.5636 4.5874 7.2763 3.1897-4.514.5958-11.36-1.884-15.7122-.1382-.117-.3194-.2047-.5006-.2047zm-473.9119.2047c-1.6868 2.4467-3.5794 5.3837-2.203 8.638-.554 2.5906 1.2376 8.5656 4.5874 7.2781 3.1897-4.5139.5934-11.3617-1.8859-15.714-.1454-.1169-.317-.2017-.4988-.2017zm497.5758 3.0574c-2.9616.728.3062 4.7423 1.1999 1.2996.2506-.8098-.5785-1.2542-1.2-1.2996zm-473.912.2018c-2.9617.728.3068 4.744 1.1997 1.301.2502-.8098-.5788-1.2572-1.1997-1.301zm260.5106 2.3502a3.4324 3.4324 0 0 0-1.2827.193c-4.1264-.1462-1.898 5.7639 1.434 4.4092 3.1329-.4883 2.5509-4.4549-.1513-4.6016zm-473.914.2032a3.4295 3.4295 0 0 0-1.2812.193c-4.1262-.1462-1.8978 5.7639 1.434 4.4093 3.1328-.4882 2.5489-4.455-.1527-4.6017zm459.6589 1.6706c-2.8135-.0439-4.6318 2.6179-2.7962 5.0347-.1454 2.1061 1.1707 8.2424 4.058 4.7064.269-2.871 3.8842-7.39.7285-9.3469-.621-.266-1.3117-.44-1.9903-.3947zm-473.912.2017c-2.8135-.0438-4.6318 2.62-2.7962 5.0368-.1454 2.1061 1.1707 8.2423 4.058 4.7064.269-2.8709 3.8842-7.392.7287-9.3488-.621-.266-1.3118-.44-1.9904-.3947zM356.5417-14.085c-3.0817.5745-4.2736 5.5847-1.6329 7.56.8944 6.7534 1.0006 13.8252 2.92 20.2787 2.3219 2.3467 9.1275-1.4704 4.7534-3.9236-2.5064-2.1508 1.8362-7.6086-1.5168-10.662-2.3798-3.5701-1.1678-7.0876-1.4803-10.5259-.6254-1.2236-1.6217-2.8146-3.0434-2.7272zm-473.912.2046c-3.0817.5745-4.2736 5.5827-1.633 7.558.8945 6.7534 1.0006 13.8252 2.92 20.2787 2.322 2.3467 9.1276-1.4703 4.7536-3.9238-2.5064-2.1506 1.8342-7.6086-1.519-10.6618-2.3796-3.5701-1.1663-7.0878-1.4781-10.5259-.6253-1.2235-1.6218-2.8129-3.0435-2.7252zm482.3623.8903c-2.1985.6885.7591 2.4302.7518.329-.1716-.2369-.5308-.2837-.7518-.329zm-473.912.2032c-2.1985.6885.7576 2.4284.7504.326-.1716-.2368-.5294-.2807-.7504-.326zm672.208.3976c-3.6216-.4166-2.111 7.0942-.128 3.8305.7565-.8756 1.8853-3.3932.128-3.8305zm-193.8284.1725a1.666 1.666 0 0 0-.3127 0c-3.561-.1725-2.0802 5.5021.7475 2.9272 1.2041-.7528 1.0383-2.8156-.4348-2.9311zm-280.0856.0293c-3.6216-.4167-2.109 7.0923-.1308 3.8284.7562-.8757 1.8834-3.3914.1308-3.8284zm-193.8263.1725a1.666 1.666 0 0 0-.3127 0c-3.5608-.1725-2.08 5.5.7475 2.9253 1.2042-.7529 1.0384-2.8138-.4348-2.9291zM561.4463 7.0419c-7.77 1.2572-7.4385 10.6048-11.5787 15.5976-.804 1.7035-4.6832 6.5416-1.2232 7.1306 5.016-1.5354 6.3862-6.9359 7.5787-11.231 3.834-1.9955 4.079-7.571 6.1335-10.9727-.1164-.3889-.536-.5555-.9103-.5248zm-473.912.2017c-7.77 1.2572-7.4383 10.6049-11.5787 15.5976-.8042 1.7035-4.6832 6.5437-1.223 7.1325 5.016-1.5353 6.3863-6.9357 7.5788-11.2309 3.8338-1.9956 4.0789-7.571 6.1334-10.9728-.1164-.3888-.5367-.557-.9104-.5262zm280.4663 1.7366c-2.539.706.3548 2.9364.4 4.4365 2.1475 2.4834 8.9325-1.0057 4.8734-3.3915-2.1865.0439-3.7467.272-5.2735-1.0452zm-473.912.2017c-2.539.706.3548 2.9382.4 4.4383 2.1473 2.4834 8.9325-1.0057 4.8732-3.3915-2.1863.0439-3.7465.269-5.2734-1.0467zm451.9796 1.4487c-1.1445 2.4841 2.0592 4.7798.8987.7455-.1454-.383-.5788-.6447-.8987-.7455zm-473.9119.2017c-1.1445 2.4843 2.0591 4.7819.8987.7485-.1454-.383-.5788-.6462-.8987-.7485zm708.3664 2.6767c-2.9664 1.127 2.862 2.3176.5469.1315-.1495-.1579-.379-.0438-.5469-.1315zm-473.912.2017c-2.9664 1.127 2.862 2.3194.5468.1316-.1498-.158-.3795-.0439-.5468-.1316zm256.0296 2.0589c-3.091-.2032-2.877 5.1878.5308 3.37 1.3743-.5819 1.2245-3.4643-.5309-3.37zm-473.912.2017c-3.091-.2032-2.8771 5.1878.5307 3.3701 1.3743-.5818 1.2246-3.4645-.5308-3.3701zm456.42 1.785c-4.5272 1.4356-.8493 8.053-.3272 10.93 14.5582 46.5666 56.6604 82.9945 104.7558 90.1512 4.8443-.263 13.465 4.6072 16.6415-.592-.6045-6.4932-12.9042-1.465-17.0724-4.7665-30.0791-6.5772-58.8024-22.458-77.7025-47.2007-11.8442-14.1389-18.906-31.4116-25.5983-48.3506-.1876-.1506-.4653-.1798-.698-.1725zm-473.9139.2047c-4.5272 1.4355-.8478 8.055-.3243 10.932 14.5582 46.5666 56.6604 82.9945 104.7558 90.1512 4.8443-.263 13.465 4.6053 16.6416-.595-.605-6.4933-12.9042-1.463-17.0725-4.7647-30.079-6.5771-58.8023-22.4598-77.7026-47.2024-11.844-14.1389-18.9057-31.4097-25.598-48.3487-.1876-.1506-.4654-.1798-.698-.1725zm504.7952 5.2776c-2.6248-.1024-5.2645 3.9534-1.5632 4.4035 2.5131.7368 5.9485-3.9085 2.0869-4.3258-.173-.0438-.349-.073-.5236-.073zm-473.9119.2032c-2.625-.1024-5.2646 3.9535-1.5633 4.4035 2.5131.7368 5.9486-3.9085 2.087-4.3258-.173-.0438-.349-.073-.5235-.073zm465.7843 6.4295c-2.6914.073-2.2008 4.8108.618 3.5099 1.457-.7266 2.3648-3.4045-.0435-3.4576a2.7771 2.7771 0 0 0-.5803-.0585zm-473.9138.2017c-2.6916.073-2.199 4.811.6196 3.5099 1.4569-.7265 2.3648-3.4045-.0436-3.4576a2.7905 2.7905 0 0 0-.5818-.0584zm481.4174.0877c-3.8375 2.4308 2.9439 2.3097 0 0zm-473.912.2032c-3.8373 2.4308 2.9439 2.3099 0 0zm672.1344 1.721c-4.1249.3947-3.386 7.5753.8502 6.2604 2.6744-1.5222 2.8499-6.2164-.8502-6.2604zm-473.912.2018c-4.1249.3947-3.386 7.5751.8508 6.2603 2.6743-1.5223 2.8497-6.2163-.8507-6.2603zm454.8144 5.3474c-2.6916 2.138-4.2303 6.3681-5.5884 9.477 2.4355 4.9552 6.9435-1.7226 7.7547-4.4267.9124-1.8186-.0625-4.6876-2.1663-5.0503zm-473.912.2032c-2.6916 2.138-4.2303 6.3683-5.5884 9.477 2.4355 4.9554 6.9436-1.7245 7.7547-4.4286.9118-1.8184-.0582-4.6856-2.1663-5.0484zm292.472.7865c-3.755-.3757-2.3947 6.2631.7578 3.007 1.0587-.918.8478-3.0671-.7577-3.007zm-473.9118.2046c-3.7551-.3757-2.395 6.2611.7577 3.0049 1.0587-.918.8478-3.065-.7577-3.0049zm483.9177.8976c-3.2552-.073-1.3292 5.2497 1.127 2.7174 1.2318-1.0759.4392-2.7626-1.127-2.7174zm-473.9119.2032c-3.2551-.073-1.3292 5.2498 1.127 2.7176 1.2319-1.076.4393-2.7626-1.127-2.7176zm477.709 9.6849c-2.6415 1.2002 1.6573 2.1901.3112.0877.0436-.073-.4173 0-.3112-.0877zm-473.9119.2047c-2.6415 1.2001 1.6572 2.188.3113.0877.0436-.0731-.4174 0-.3113-.0877zm478.938.9633c-3.865.421-4.6884 4.8843-1.6465 7.2258 4.073 3.0754-5.7281 5.1546-2.452 8.4436 3.8848 1.5738 5.3615-6.2884 8.8309-2.4863 3.4907 1.7313 5.7038-3.8752 2.369-5.7885-2.7405-1.9485-4.1043-6.2647-7.1015-7.3946zm-473.912.2032c-3.865.421-4.6884 4.8845-1.6463 7.226 4.0729 3.0754-5.7283 5.1545-2.4522 8.4436 3.8848 1.5738 5.3615-6.2883 8.8308-2.4864 3.4908 1.7313 5.7039-3.877 2.3692-5.7903-2.7406-1.9485-4.1044-6.2629-7.1016-7.3929zm642.3586 1.8881c-3.0299 1.4005 2.207 2.7992 0 0zm-473.9118.2032c-3.0302 1.4005 2.2069 2.7992 0 0zm455.1853.4561c-3.3247.2939-.2199 5.3676 1.4067 2.2552.3141-1.1198-.169-2.2518-1.4067-2.2552zm-473.912.2047c-3.3246.2924-.2195 5.3673 1.4064 2.2552.3141-1.1198-.1687-2.2519-1.4063-2.2552zm369.4152 1.0291c-3.5745.3377-.0872 5.4578 1.5092 2.3874.615-1.0584-.411-2.3326-1.5092-2.3874zm-473.914.2032c-3.5745.3377-.0872 5.4578 1.5112 2.3872.6152-1.0584-.413-2.3322-1.5112-2.3872zm463.6744 1.2353c-3.3797.9823 3.1732 4.7552 2.0869 1.3098-.392-.7806-1.2882-1.2455-2.087-1.3098zm-473.912.2032c-3.3796.9823 3.1731 4.7533 2.087 1.3069-.3913-.7807-1.2886-1.244-2.087-1.307zm478.71 7.6513c-2.7316 1.0613 1.6237 3.4723 1.546 1.0116-.3066-.598-.9888-.9078-1.546-1.0116zm-473.912.2032c-2.7316 1.0613 1.6237 3.4707 1.546 1.0101-.307-.5979-.989-.9063-1.546-1.0101zM406.366 65.688c-1.9575.6549-3.011 2.0796-4.5816.073-2.1707.5804-.2647 2.5264 1.1498 2.4358.7389 3.7701 7.2859 4.7096 6.8406.1023-.6287-1.3668-1.8711-2.5265-3.4088-2.6028zm-473.9139.2046c-1.9575.655-3.0092 2.0794-4.5797.0731-2.1708.579-.2647 2.5245 1.1504 2.4339.7387 3.77 7.2858 4.7115 6.8405.1023-.6283-1.3668-1.873-2.5265-3.4106-2.6028zm550.6387 1.3318a3.7754 3.7754 0 0 0-.6377.0098c-1.4085 1.4645-1.8007 5.6006-1.2501 7.3928 1.1958.421 7.5053.7207 5.7874-1.4665-1.3108-2.049-.9377-5.7257-3.8995-5.932zm-473.912.2017c-.1978-.0139-.4086-.011-.637.0098-1.4092 1.4644-1.8007 5.6007-1.2507 7.3929 1.1955.4195 7.5053.7207 5.7875-1.4665-1.3103-2.0491-.938-5.7277-3.8995-5.9341zm447.9023.5087c-3.6156.4357-.1661 4.1825 1.9613 2.1658.783-1.228-.8926-2.2826-1.9613-2.1658zm-473.914.2018c-3.6155.4356-.1643 4.1825 1.9634 2.1659.7825-1.228-.8943-2.2827-1.9634-2.166zm562.343.1944c-2.822 1.0306-7.5741 3.5519-7.4163 6.8938 3.178.1316 8.0863-2.725 8.4116-6.1497-.1425-.4386-.5741-.7032-.9951-.744zm-473.9119.2017c-2.822 1.0306-7.5761 3.5516-7.4183 6.8935 3.178.1316 8.0882-2.725 8.4135-6.1495-.1454-.4386-.5745-.7032-.9947-.7441zm424.2056 2.6688c-3.4427.3786 1.2395 2.8222.7807.307-.228-.2705-.5474-.3143-.7807-.307zm-473.912.2017c-3.4428.3786 1.239 2.8243.781.3085-.2284-.2705-.5469-.3158-.781-.3085zm390.3236.4868c-3.0024 1.6487 1.924 5.5498 3.6154 6.6782 2.0327-.2895 4.3107 4.5665 5.1304.9034-.9315-3.8314-5.3072-6.506-8.7459-7.5813zm-473.9121.2018c-3.0024 1.6485 1.9242 5.5496 3.6155 6.678 2.0327-.2895 4.3108 4.5665 5.1305.9034-.9322-3.8314-5.3072-6.5058-8.746-7.5813zm514.8415.1812c-2.8045 1.1198 2.0877 3.4209 1.0377.5833-.1907-.3786-.6207-.6198-1.0377-.5833zm-473.9139.2018c-2.8046 1.1197 2.0897 3.421 1.0398.5832-.1905-.3786-.6224-.6198-1.0398-.5832zm416.6095 1.0817c-4.0016.6783-4.9117 4.904-1.1169 6.8004 2.5218 2.6395 8.4537 7.3013 10.6106 1.756.083-3.798-7.1798-5.9496-9.4937-8.5564zm-473.912.2018c-4.0016.6783-4.9136 4.906-1.1183 6.8024 2.5217 2.6393 8.4557 7.3012 10.6125 1.7558.0873-3.7979-7.1798-5.9516-9.4937-8.5582zm504.2579 7.4335c-3.5004-.2325-1.522 5.7042 1.1826 2.9855 1.3865-1.1914.6492-3.0877-1.1826-2.9855zm-473.912.2046c-3.5004-.2324-1.522 5.7022 1.1824 2.9835 1.386-1.1914.6486-3.0857-1.1823-2.9835zm470.8376 2.836c-2.9522.1023-5.0472 7.9014-.7767 6.2583 1.9089-1.3098 4.4727-5.3935.7767-6.2583zm-473.9119.2017c-2.9524.1024-5.0473 7.9013-.7766 6.2585 1.909-1.3098 4.4728-5.3936.7766-6.2585zm478.3815 2.6029c-2.7977.69-3.9186 6.7718.0422 6.3185 2.3191-1.2455 4.198-6.4329-.0422-6.3185zm-473.9119.2017c-2.7979.69-3.9206 6.774.0436 6.3207 2.319-1.2455 4.1997-6.4349-.0436-6.3207zm529.5275.4268c-1.936.044-3.6783.4737-4.773 2.0396-1.1103 3.3212 2.1127 3.6576 3.9865 4.8074 1.9049 3.0612 3.855-2.7424 6.4772-1.7948 2.5855-.2631 1.5613-3.2272 1.774-4.9337-2.1667.399-4.9758-.177-7.4647-.117zm-473.9121.2047c-1.9358.0439-3.6782.4722-4.7729 2.0377-1.1096 3.3211 2.1127 3.6575 3.9865 4.8074 1.9049 3.0611 3.855-2.7405 6.4773-1.7928 2.5854-.2631 1.5612-3.2273 1.774-4.9339-2.1668.3991-4.9758-.1769-7.465-.117zm496.4222 1.4195c-3.1788 2.1584 2.9708 2.3712.1566.073l-.1604-.0438zm-473.9119.2046c-3.1789 2.1583 2.9707 2.3694.1571.0731l-.16-.0439zm403.0461.2222c-3.7071.6608-3.9558 7.8294.7962 6.5867 4.9756.2075 2.4433-6.2173-.7962-6.5867zm-473.912.2032c-3.7072.6608-3.9558 7.8273.7955 6.5848 4.9757.206 2.4434-6.2152-.7955-6.5848zm477.4174 14.0688c-2.1255 1.7449 7.2154 3.1301 3.4454.9648-1.099-.4575-2.2541-.858-3.4454-.9648zm-473.9121.2018c-2.1254 1.7448 7.2156 3.132 3.4455.9677-1.0994-.4575-2.254-.8595-3.4455-.9677zm505.5875 5.3106c-4.359 0-3.6593 8.319 1.0492 6.5711 4.559-1.0306 3.2777-6.6295-1.0492-6.5711zm-473.912.2046c-4.359 0-3.6593 8.317 1.05 6.5693 4.559-1.0306 3.2775-6.6275-1.05-6.5693z"/>
    <flowRoot xml:space="preserve" style="font-style:normal;font-variant:normal;font-weight:400;font-stretch:normal;font-size:53.33333206px;line-height:25px;font-family:'Autumn Chant';-inkscape-font-specification:'Autumn Chant';letter-spacing:0;word-spacing:0;fill:#143058;fill-opacity:1;stroke:none" transform="translate(390.9557 -182.9228) scale(.06803)">
      <flowRegion style="fill:#143058;fill-opacity:1">
        <path style="fill:#143058;fill-opacity:1" d="M-7025 2647.5198H-12.5v2737.5H-7025z"/>
      </flowRegion>
      <flowPara/>
    </flowRoot>
    <flowRoot xml:space="preserve" style="font-style:normal;font-variant:normal;font-weight:400;font-stretch:normal;font-size:53.33333206px;line-height:25px;font-family:'Autumn Chant';-inkscape-font-specification:'Autumn Chant';letter-spacing:0;word-spacing:0;fill:#143058;fill-opacity:1;stroke:none" transform="translate(382.2842 -215.077) scale(.06803)">
      <flowRegion style="fill:#143058;fill-opacity:1">
        <path style="fill:#143058;fill-opacity:1" d="M-7025 2647.5198H-12.5v2737.5H-7025z"/>
      </flowRegion>
      <flowPara/>
    </flowRoot>
  </g>
</svg>
